{
  "header": {
    "PPQ": 120,
    "bpm": 80,
    "timeSignature": [
      6,
      4
    ],
    "name": "Saint-Saëns — The Swan (Carnival of the Animals)"
  },
  "startTime": 0,
  "duration": 82.110204,
  "tracks": [
    {
      "id": 0,
      "instrument": "violin",
      "startTime": 0,
      "duration": 82.110204,
      "length": 0,
      "notes": []
    },
    {
      "id": 1,
      "instrument": "string ensemble 1",
      "startTime": 0,
      "duration": 82.110204,
      "length": 466,
      "notes": [
        {
          "time": 1.454925,
          "name": "B3",
          "midi": 59,
          "duration": 0.22388,
          "velocity": 0.354331
        },
        {
          "time": 1.499701,
          "name": "B3",
          "midi": 59,
          "duration": 0.746268,
          "velocity": 0.354331
        },
        {
          "time": 1.499701,
          "name": "D4",
          "midi": 62,
          "duration": 0.746268,
          "velocity": 0.354331
        },
        {
          "time": 1.678806,
          "name": "D4",
          "midi": 62,
          "duration": 0.223881,
          "velocity": 0.354331
        },
        {
          "time": 1.902686,
          "name": "B4",
          "midi": 71,
          "duration": 0.223881,
          "velocity": 0.354331
        },
        {
          "time": 2.126567,
          "name": "G4",
          "midi": 67,
          "duration": 0.22388,
          "velocity": 0.354331
        },
        {
          "time": 2.350447,
          "name": "B3",
          "midi": 59,
          "duration": 0.22388,
          "velocity": 0.354331
        },
        {
          "time": 2.574328,
          "name": "D4",
          "midi": 62,
          "duration": 0.22388,
          "velocity": 0.354331
        },
        {
          "time": 2.798208,
          "name": "B4",
          "midi": 71,
          "duration": 0.22388,
          "velocity": 0.354331
        },
        {
          "time": 3.022089,
          "name": "G4",
          "midi": 67,
          "duration": 0.22388,
          "velocity": 0.354331
        },
        {
          "time": 3.245969,
          "name": "B3",
          "midi": 59,
          "duration": 0.223881,
          "velocity": 0.354331
        },
        {
          "time": 3.46985,
          "name": "D4",
          "midi": 62,
          "duration": 0.22388,
          "velocity": 0.354331
        },
        {
          "time": 3.69373,
          "name": "B4",
          "midi": 71,
          "duration": 0.22388,
          "velocity": 0.354331
        },
        {
          "time": 3.917611,
          "name": "G4",
          "midi": 67,
          "duration": 0.223881,
          "velocity": 0.354331
        },
        {
          "time": 4.141491,
          "name": "B3",
          "midi": 59,
          "duration": 0.22388,
          "velocity": 0.354331
        },
        {
          "time": 4.186267,
          "name": "B3",
          "midi": 59,
          "duration": 0.888059,
          "velocity": 0.354331
        },
        {
          "time": 4.260894,
          "name": "D4",
          "midi": 62,
          "duration": 0.813432,
          "velocity": 0.354331
        },
        {
          "time": 4.335521,
          "name": "G4",
          "midi": 67,
          "duration": 0.738806,
          "velocity": 0.354331
        },
        {
          "time": 4.365372,
          "name": "D4",
          "midi": 62,
          "duration": 0.22388,
          "velocity": 0.354331
        },
        {
          "time": 4.410148,
          "name": "B4",
          "midi": 71,
          "duration": 0.664179,
          "velocity": 0.354331
        },
        {
          "time": 4.484775,
          "name": "D5",
          "midi": 74,
          "duration": 0.589552,
          "velocity": 0.354331
        },
        {
          "time": 4.559402,
          "name": "G5",
          "midi": 79,
          "duration": 0.514925,
          "velocity": 0.354331
        },
        {
          "time": 4.589252,
          "name": "B4",
          "midi": 71,
          "duration": 0.22388,
          "velocity": 0.354331
        },
        {
          "time": 4.634028,
          "name": "B5",
          "midi": 83,
          "duration": 0.440298,
          "velocity": 0.354331
        },
        {
          "time": 4.813133,
          "name": "G4",
          "midi": 67,
          "duration": 0.22388,
          "velocity": 0.354331
        },
        {
          "time": 5.037013,
          "name": "B3",
          "midi": 59,
          "duration": 0.22388,
          "velocity": 0.354331
        },
        {
          "time": 5.260894,
          "name": "D4",
          "midi": 62,
          "duration": 0.22388,
          "velocity": 0.354331
        },
        {
          "time": 5.484774,
          "name": "B4",
          "midi": 71,
          "duration": 0.22388,
          "velocity": 0.354331
        },
        {
          "time": 5.708655,
          "name": "G4",
          "midi": 67,
          "duration": 0.22388,
          "velocity": 0.354331
        },
        {
          "time": 5.932535,
          "name": "B3",
          "midi": 59,
          "duration": 0.22388,
          "velocity": 0.354331
        },
        {
          "time": 6.156416,
          "name": "D4",
          "midi": 62,
          "duration": 0.22388,
          "velocity": 0.354331
        },
        {
          "time": 6.380296,
          "name": "B4",
          "midi": 71,
          "duration": 0.22388,
          "velocity": 0.354331
        },
        {
          "time": 6.604177,
          "name": "G4",
          "midi": 67,
          "duration": 0.216418,
          "velocity": 0.354331
        },
        {
          "time": 6.828057,
          "name": "B3",
          "midi": 59,
          "duration": 0.22388,
          "velocity": 0.354331
        },
        {
          "time": 6.872833,
          "name": "B3",
          "midi": 59,
          "duration": 0.746268,
          "velocity": 0.417323
        },
        {
          "time": 6.872833,
          "name": "D4",
          "midi": 62,
          "duration": 0.746268,
          "velocity": 0.417323
        },
        {
          "time": 7.051938,
          "name": "D4",
          "midi": 62,
          "duration": 0.22388,
          "velocity": 0.354331
        },
        {
          "time": 7.275818,
          "name": "B4",
          "midi": 71,
          "duration": 0.22388,
          "velocity": 0.354331
        },
        {
          "time": 7.499699,
          "name": "G4",
          "midi": 67,
          "duration": 0.22388,
          "velocity": 0.354331
        },
        {
          "time": 7.723579,
          "name": "B3",
          "midi": 59,
          "duration": 0.22388,
          "velocity": 0.354331
        },
        {
          "time": 7.94746,
          "name": "D4",
          "midi": 62,
          "duration": 0.22388,
          "velocity": 0.354331
        },
        {
          "time": 8.17134,
          "name": "B4",
          "midi": 71,
          "duration": 0.22388,
          "velocity": 0.354331
        },
        {
          "time": 8.395221,
          "name": "G4",
          "midi": 67,
          "duration": 0.225084,
          "velocity": 0.354331
        },
        {
          "time": 8.620305,
          "name": "B3",
          "midi": 59,
          "duration": 0.241936,
          "velocity": 0.354331
        },
        {
          "time": 8.862241,
          "name": "D4",
          "midi": 62,
          "duration": 0.241935,
          "velocity": 0.354331
        },
        {
          "time": 9.104176,
          "name": "B4",
          "midi": 71,
          "duration": 0.241936,
          "velocity": 0.354331
        },
        {
          "time": 9.346112,
          "name": "G4",
          "midi": 67,
          "duration": 0.240732,
          "velocity": 0.354331
        },
        {
          "time": 9.586843,
          "name": "B3",
          "midi": 59,
          "duration": 0.22388,
          "velocity": 0.354331
        },
        {
          "time": 9.631619,
          "name": "B3",
          "midi": 59,
          "duration": 0.888059,
          "velocity": 0.472441
        },
        {
          "time": 9.706246,
          "name": "D4",
          "midi": 62,
          "duration": 0.813432,
          "velocity": 0.472441
        },
        {
          "time": 9.780873,
          "name": "G4",
          "midi": 67,
          "duration": 0.738806,
          "velocity": 0.472441
        },
        {
          "time": 9.810724,
          "name": "D4",
          "midi": 62,
          "duration": 0.22388,
          "velocity": 0.354331
        },
        {
          "time": 9.8555,
          "name": "B4",
          "midi": 71,
          "duration": 0.664179,
          "velocity": 0.472441
        },
        {
          "time": 9.930127,
          "name": "D5",
          "midi": 74,
          "duration": 0.589552,
          "velocity": 0.472441
        },
        {
          "time": 10.004754,
          "name": "G5",
          "midi": 79,
          "duration": 0.514925,
          "velocity": 0.472441
        },
        {
          "time": 10.034604,
          "name": "B4",
          "midi": 71,
          "duration": 0.22388,
          "velocity": 0.354331
        },
        {
          "time": 10.07938,
          "name": "B5",
          "midi": 83,
          "duration": 0.440298,
          "velocity": 0.472441
        },
        {
          "time": 10.258485,
          "name": "G4",
          "midi": 67,
          "duration": 0.22388,
          "velocity": 0.354331
        },
        {
          "time": 10.482365,
          "name": "B3",
          "midi": 59,
          "duration": 0.22388,
          "velocity": 0.354331
        },
        {
          "time": 10.706246,
          "name": "D4",
          "midi": 62,
          "duration": 0.22388,
          "velocity": 0.362205
        },
        {
          "time": 10.930126,
          "name": "B4",
          "midi": 71,
          "duration": 0.22388,
          "velocity": 0.370079
        },
        {
          "time": 11.154007,
          "name": "G4",
          "midi": 67,
          "duration": 0.225084,
          "velocity": 0.377953
        },
        {
          "time": 11.379091,
          "name": "B3",
          "midi": 59,
          "duration": 0.241936,
          "velocity": 0.385827
        },
        {
          "time": 11.621027,
          "name": "D4",
          "midi": 62,
          "duration": 0.241936,
          "velocity": 0.393701
        },
        {
          "time": 11.862962,
          "name": "B4",
          "midi": 71,
          "duration": 0.241935,
          "velocity": 0.401575
        },
        {
          "time": 12.104898,
          "name": "G4",
          "midi": 67,
          "duration": 0.233871,
          "velocity": 0.409449
        },
        {
          "time": 12.346833,
          "name": "C4",
          "midi": 60,
          "duration": 0.233871,
          "velocity": 0.417323
        },
        {
          "time": 12.39522,
          "name": "G3",
          "midi": 55,
          "duration": 0.806452,
          "velocity": 0.472441
        },
        {
          "time": 12.39522,
          "name": "B3",
          "midi": 59,
          "duration": 0.806452,
          "velocity": 0.472441
        },
        {
          "time": 12.39522,
          "name": "D4",
          "midi": 62,
          "duration": 0.806452,
          "velocity": 0.472441
        },
        {
          "time": 12.588769,
          "name": "E4",
          "midi": 64,
          "duration": 0.233871,
          "velocity": 0.417323
        },
        {
          "time": 12.830704,
          "name": "C5",
          "midi": 72,
          "duration": 0.233871,
          "velocity": 0.417323
        },
        {
          "time": 13.07264,
          "name": "A4",
          "midi": 69,
          "duration": 0.233871,
          "velocity": 0.417323
        },
        {
          "time": 13.314575,
          "name": "C4",
          "midi": 60,
          "duration": 0.233871,
          "velocity": 0.417323
        },
        {
          "time": 13.556511,
          "name": "E4",
          "midi": 64,
          "duration": 0.233871,
          "velocity": 0.417323
        },
        {
          "time": 13.798446,
          "name": "C5",
          "midi": 72,
          "duration": 0.233871,
          "velocity": 0.417323
        },
        {
          "time": 14.040382,
          "name": "A4",
          "midi": 69,
          "duration": 0.233871,
          "velocity": 0.417323
        },
        {
          "time": 14.282317,
          "name": "C4",
          "midi": 60,
          "duration": 0.233871,
          "velocity": 0.417323
        },
        {
          "time": 14.524253,
          "name": "E4",
          "midi": 64,
          "duration": 0.233871,
          "velocity": 0.417323
        },
        {
          "time": 14.766188,
          "name": "C5",
          "midi": 72,
          "duration": 0.233871,
          "velocity": 0.417323
        },
        {
          "time": 15.008124,
          "name": "A4",
          "midi": 69,
          "duration": 0.233871,
          "velocity": 0.417323
        },
        {
          "time": 15.250059,
          "name": "C4",
          "midi": 60,
          "duration": 0.233871,
          "velocity": 0.417323
        },
        {
          "time": 15.298446,
          "name": "G3",
          "midi": 55,
          "duration": 0.959677,
          "velocity": 0.535433
        },
        {
          "time": 15.379091,
          "name": "E4",
          "midi": 64,
          "duration": 0.879032,
          "velocity": 0.535433
        },
        {
          "time": 15.459736,
          "name": "A4",
          "midi": 69,
          "duration": 0.798387,
          "velocity": 0.535433
        },
        {
          "time": 15.491995,
          "name": "E4",
          "midi": 64,
          "duration": 0.233871,
          "velocity": 0.417323
        },
        {
          "time": 15.540382,
          "name": "C5",
          "midi": 72,
          "duration": 0.717742,
          "velocity": 0.535433
        },
        {
          "time": 15.621027,
          "name": "E5",
          "midi": 76,
          "duration": 0.637097,
          "velocity": 0.535433
        },
        {
          "time": 15.701672,
          "name": "A5",
          "midi": 81,
          "duration": 0.556452,
          "velocity": 0.535433
        },
        {
          "time": 15.73393,
          "name": "C5",
          "midi": 72,
          "duration": 0.233871,
          "velocity": 0.417323
        },
        {
          "time": 15.782317,
          "name": "C6",
          "midi": 84,
          "duration": 0.475806,
          "velocity": 0.535433
        },
        {
          "time": 15.975866,
          "name": "A4",
          "midi": 69,
          "duration": 0.233871,
          "velocity": 0.417323
        },
        {
          "time": 16.217801,
          "name": "C4",
          "midi": 60,
          "duration": 0.233871,
          "velocity": 0.417323
        },
        {
          "time": 16.459737,
          "name": "E4",
          "midi": 64,
          "duration": 0.233871,
          "velocity": 0.409449
        },
        {
          "time": 16.701672,
          "name": "C5",
          "midi": 72,
          "duration": 0.233871,
          "velocity": 0.401575
        },
        {
          "time": 16.943608,
          "name": "A4",
          "midi": 69,
          "duration": 0.233871,
          "velocity": 0.393701
        },
        {
          "time": 17.185543,
          "name": "C4",
          "midi": 60,
          "duration": 0.233871,
          "velocity": 0.385827
        },
        {
          "time": 17.427479,
          "name": "E4",
          "midi": 64,
          "duration": 0.233871,
          "velocity": 0.377953
        },
        {
          "time": 17.669414,
          "name": "C5",
          "midi": 72,
          "duration": 0.233871,
          "velocity": 0.370079
        },
        {
          "time": 17.91135,
          "name": "A4",
          "midi": 69,
          "duration": 0.233871,
          "velocity": 0.362205
        },
        {
          "time": 18.153285,
          "name": "C4",
          "midi": 60,
          "duration": 0.233871,
          "velocity": 0.354331
        },
        {
          "time": 18.395221,
          "name": "E4",
          "midi": 64,
          "duration": 0.233871,
          "velocity": 0.354331
        },
        {
          "time": 18.443608,
          "name": "C4",
          "midi": 60,
          "duration": 0.717742,
          "velocity": 0.472441
        },
        {
          "time": 18.524253,
          "name": "E4",
          "midi": 64,
          "duration": 0.637097,
          "velocity": 0.472441
        },
        {
          "time": 18.604898,
          "name": "A4",
          "midi": 69,
          "duration": 0.556452,
          "velocity": 0.472441
        },
        {
          "time": 18.637156,
          "name": "C5",
          "midi": 72,
          "duration": 0.233871,
          "velocity": 0.354331
        },
        {
          "time": 18.685543,
          "name": "C5",
          "midi": 72,
          "duration": 0.475806,
          "velocity": 0.472441
        },
        {
          "time": 18.879092,
          "name": "A4",
          "midi": 69,
          "duration": 0.233871,
          "velocity": 0.354331
        },
        {
          "time": 19.121027,
          "name": "C4",
          "midi": 60,
          "duration": 0.233871,
          "velocity": 0.354331
        },
        {
          "time": 19.362963,
          "name": "E4",
          "midi": 64,
          "duration": 0.233871,
          "velocity": 0.354331
        },
        {
          "time": 19.604898,
          "name": "C5",
          "midi": 72,
          "duration": 0.233871,
          "velocity": 0.354331
        },
        {
          "time": 19.846834,
          "name": "A4",
          "midi": 69,
          "duration": 0.233382,
          "velocity": 0.354331
        },
        {
          "time": 20.087792,
          "name": "C4",
          "midi": 60,
          "duration": 0.219697,
          "velocity": 0.354331
        },
        {
          "time": 20.315064,
          "name": "E4",
          "midi": 64,
          "duration": 0.219697,
          "velocity": 0.354331
        },
        {
          "time": 20.542337,
          "name": "C5",
          "midi": 72,
          "duration": 0.219697,
          "velocity": 0.354331
        },
        {
          "time": 20.76961,
          "name": "A4",
          "midi": 69,
          "duration": 0.219814,
          "velocity": 0.354331
        },
        {
          "time": 20.997116,
          "name": "C4",
          "midi": 60,
          "duration": 0.223077,
          "velocity": 0.354331
        },
        {
          "time": 21.227885,
          "name": "F#4",
          "midi": 66,
          "duration": 0.223077,
          "velocity": 0.354331
        },
        {
          "time": 21.274039,
          "name": "C4",
          "midi": 60,
          "duration": 0.685457,
          "velocity": 0.472441
        },
        {
          "time": 21.350962,
          "name": "F#4",
          "midi": 66,
          "duration": 0.608534,
          "velocity": 0.472441
        },
        {
          "time": 21.427885,
          "name": "C5",
          "midi": 72,
          "duration": 0.531611,
          "velocity": 0.472441
        },
        {
          "time": 21.458654,
          "name": "C5",
          "midi": 72,
          "duration": 0.223077,
          "velocity": 0.354331
        },
        {
          "time": 21.689423,
          "name": "A4",
          "midi": 69,
          "duration": 0.223197,
          "velocity": 0.354331
        },
        {
          "time": 21.920433,
          "name": "C4",
          "midi": 60,
          "duration": 0.226563,
          "velocity": 0.354331
        },
        {
          "time": 22.154808,
          "name": "F#4",
          "midi": 66,
          "duration": 0.226563,
          "velocity": 0.354331
        },
        {
          "time": 22.389183,
          "name": "C5",
          "midi": 72,
          "duration": 0.226563,
          "velocity": 0.354331
        },
        {
          "time": 22.623558,
          "name": "A4",
          "midi": 69,
          "duration": 0.226687,
          "velocity": 0.354331
        },
        {
          "time": 22.858181,
          "name": "C4",
          "midi": 60,
          "duration": 0.230159,
          "velocity": 0.354331
        },
        {
          "time": 23.096276,
          "name": "F#4",
          "midi": 66,
          "duration": 0.230159,
          "velocity": 0.354331
        },
        {
          "time": 23.334372,
          "name": "C5",
          "midi": 72,
          "duration": 0.230159,
          "velocity": 0.354331
        },
        {
          "time": 23.572467,
          "name": "A4",
          "midi": 69,
          "duration": 0.230287,
          "velocity": 0.354331
        },
        {
          "time": 23.810818,
          "name": "B3",
          "midi": 59,
          "duration": 0.233871,
          "velocity": 0.354331
        },
        {
          "time": 24.052754,
          "name": "D4",
          "midi": 62,
          "duration": 0.233871,
          "velocity": 0.354331
        },
        {
          "time": 24.101141,
          "name": "B3",
          "midi": 59,
          "duration": 0.717742,
          "velocity": 0.472441
        },
        {
          "time": 24.181786,
          "name": "G4",
          "midi": 67,
          "duration": 0.637097,
          "velocity": 0.472441
        },
        {
          "time": 24.262431,
          "name": "B4",
          "midi": 71,
          "duration": 0.556452,
          "velocity": 0.472441
        },
        {
          "time": 24.294689,
          "name": "B4",
          "midi": 71,
          "duration": 0.233871,
          "velocity": 0.354331
        },
        {
          "time": 24.536625,
          "name": "G4",
          "midi": 67,
          "duration": 0.233871,
          "velocity": 0.354331
        },
        {
          "time": 24.77856,
          "name": "B3",
          "midi": 59,
          "duration": 0.233871,
          "velocity": 0.354331
        },
        {
          "time": 25.020496,
          "name": "D4",
          "midi": 62,
          "duration": 0.233871,
          "velocity": 0.354331
        },
        {
          "time": 25.262431,
          "name": "B4",
          "midi": 71,
          "duration": 0.233871,
          "velocity": 0.354331
        },
        {
          "time": 25.504367,
          "name": "G4",
          "midi": 67,
          "duration": 0.233871,
          "velocity": 0.354331
        },
        {
          "time": 25.746302,
          "name": "B3",
          "midi": 59,
          "duration": 0.233871,
          "velocity": 0.354331
        },
        {
          "time": 25.988238,
          "name": "D4",
          "midi": 62,
          "duration": 0.233871,
          "velocity": 0.354331
        },
        {
          "time": 26.230173,
          "name": "B4",
          "midi": 71,
          "duration": 0.233871,
          "velocity": 0.354331
        },
        {
          "time": 26.472109,
          "name": "G4",
          "midi": 67,
          "duration": 0.233871,
          "velocity": 0.354331
        },
        {
          "time": 26.714044,
          "name": "B3",
          "midi": 59,
          "duration": 0.233871,
          "velocity": 0.354331
        },
        {
          "time": 26.762431,
          "name": "B3",
          "midi": 59,
          "duration": 0.959677,
          "velocity": 0.472441
        },
        {
          "time": 26.818883,
          "name": "D4",
          "midi": 62,
          "duration": 0.895161,
          "velocity": 0.472441
        },
        {
          "time": 26.883399,
          "name": "G4",
          "midi": 67,
          "duration": 0.83871,
          "velocity": 0.472441
        },
        {
          "time": 26.93985,
          "name": "B4",
          "midi": 71,
          "duration": 0.774194,
          "velocity": 0.472441
        },
        {
          "time": 26.95598,
          "name": "D4",
          "midi": 62,
          "duration": 0.233871,
          "velocity": 0.354331
        },
        {
          "time": 27.004367,
          "name": "D5",
          "midi": 74,
          "duration": 0.717742,
          "velocity": 0.472441
        },
        {
          "time": 27.060818,
          "name": "G5",
          "midi": 79,
          "duration": 0.653226,
          "velocity": 0.472441
        },
        {
          "time": 27.125334,
          "name": "B5",
          "midi": 83,
          "duration": 0.596774,
          "velocity": 0.472441
        },
        {
          "time": 27.181786,
          "name": "D6",
          "midi": 86,
          "duration": 0.532258,
          "velocity": 0.472441
        },
        {
          "time": 27.197915,
          "name": "B4",
          "midi": 71,
          "duration": 0.233871,
          "velocity": 0.354331
        },
        {
          "time": 27.439851,
          "name": "G4",
          "midi": 67,
          "duration": 0.233871,
          "velocity": 0.354331
        },
        {
          "time": 27.681786,
          "name": "B3",
          "midi": 59,
          "duration": 0.233871,
          "velocity": 0.354331
        },
        {
          "time": 27.923722,
          "name": "D4",
          "midi": 62,
          "duration": 0.233871,
          "velocity": 0.354331
        },
        {
          "time": 28.165657,
          "name": "B4",
          "midi": 71,
          "duration": 0.233871,
          "velocity": 0.354331
        },
        {
          "time": 28.407593,
          "name": "G4",
          "midi": 67,
          "duration": 0.233871,
          "velocity": 0.354331
        },
        {
          "time": 28.649528,
          "name": "B3",
          "midi": 59,
          "duration": 0.233871,
          "velocity": 0.354331
        },
        {
          "time": 28.891464,
          "name": "D4",
          "midi": 62,
          "duration": 0.233871,
          "velocity": 0.354331
        },
        {
          "time": 29.133399,
          "name": "B4",
          "midi": 71,
          "duration": 0.233871,
          "velocity": 0.354331
        },
        {
          "time": 29.375335,
          "name": "G4",
          "midi": 67,
          "duration": 0.233269,
          "velocity": 0.354331
        },
        {
          "time": 29.616066,
          "name": "B3",
          "midi": 59,
          "duration": 0.216418,
          "velocity": 0.354331
        },
        {
          "time": 29.660842,
          "name": "B3",
          "midi": 59,
          "duration": 0.746268,
          "velocity": 0.472441
        },
        {
          "time": 29.660842,
          "name": "D4",
          "midi": 62,
          "duration": 0.746268,
          "velocity": 0.472441
        },
        {
          "time": 29.839947,
          "name": "D4",
          "midi": 62,
          "duration": 0.216418,
          "velocity": 0.354331
        },
        {
          "time": 30.063827,
          "name": "B4",
          "midi": 71,
          "duration": 0.216418,
          "velocity": 0.354331
        },
        {
          "time": 30.287708,
          "name": "G4",
          "midi": 67,
          "duration": 0.216418,
          "velocity": 0.354331
        },
        {
          "time": 30.511588,
          "name": "B3",
          "midi": 59,
          "duration": 0.216418,
          "velocity": 0.354331
        },
        {
          "time": 30.735469,
          "name": "D4",
          "midi": 62,
          "duration": 0.216418,
          "velocity": 0.354331
        },
        {
          "time": 30.959349,
          "name": "B4",
          "midi": 71,
          "duration": 0.216418,
          "velocity": 0.354331
        },
        {
          "time": 31.18323,
          "name": "G4",
          "midi": 67,
          "duration": 0.21702,
          "velocity": 0.354331
        },
        {
          "time": 31.408314,
          "name": "B3",
          "midi": 59,
          "duration": 0.233871,
          "velocity": 0.354331
        },
        {
          "time": 31.65025,
          "name": "D4",
          "midi": 62,
          "duration": 0.233871,
          "velocity": 0.354331
        },
        {
          "time": 31.892185,
          "name": "B4",
          "midi": 71,
          "duration": 0.233871,
          "velocity": 0.354331
        },
        {
          "time": 32.134121,
          "name": "G4",
          "midi": 67,
          "duration": 0.233269,
          "velocity": 0.354331
        },
        {
          "time": 32.374852,
          "name": "B3",
          "midi": 59,
          "duration": 0.216418,
          "velocity": 0.354331
        },
        {
          "time": 32.419628,
          "name": "B3",
          "midi": 59,
          "duration": 0.888059,
          "velocity": 0.535433
        },
        {
          "time": 32.494255,
          "name": "D4",
          "midi": 62,
          "duration": 0.813432,
          "velocity": 0.535433
        },
        {
          "time": 32.568882,
          "name": "G4",
          "midi": 67,
          "duration": 0.738806,
          "velocity": 0.535433
        },
        {
          "time": 32.598733,
          "name": "D4",
          "midi": 62,
          "duration": 0.216418,
          "velocity": 0.354331
        },
        {
          "time": 32.643509,
          "name": "B4",
          "midi": 71,
          "duration": 0.664179,
          "velocity": 0.535433
        },
        {
          "time": 32.718136,
          "name": "D5",
          "midi": 74,
          "duration": 0.589552,
          "velocity": 0.535433
        },
        {
          "time": 32.792763,
          "name": "G5",
          "midi": 79,
          "duration": 0.514925,
          "velocity": 0.535433
        },
        {
          "time": 32.822613,
          "name": "B4",
          "midi": 71,
          "duration": 0.216418,
          "velocity": 0.354331
        },
        {
          "time": 32.867389,
          "name": "B5",
          "midi": 83,
          "duration": 0.440298,
          "velocity": 0.535433
        },
        {
          "time": 33.046494,
          "name": "G4",
          "midi": 67,
          "duration": 0.216418,
          "velocity": 0.354331
        },
        {
          "time": 33.270374,
          "name": "B3",
          "midi": 59,
          "duration": 0.216418,
          "velocity": 0.354331
        },
        {
          "time": 33.494255,
          "name": "D4",
          "midi": 62,
          "duration": 0.216418,
          "velocity": 0.354331
        },
        {
          "time": 33.718135,
          "name": "B4",
          "midi": 71,
          "duration": 0.216418,
          "velocity": 0.354331
        },
        {
          "time": 33.942016,
          "name": "G4",
          "midi": 67,
          "duration": 0.21702,
          "velocity": 0.354331
        },
        {
          "time": 34.1671,
          "name": "B3",
          "midi": 59,
          "duration": 0.233871,
          "velocity": 0.354331
        },
        {
          "time": 34.409036,
          "name": "D4",
          "midi": 62,
          "duration": 0.233871,
          "velocity": 0.354331
        },
        {
          "time": 34.650971,
          "name": "B4",
          "midi": 71,
          "duration": 0.233871,
          "velocity": 0.354331
        },
        {
          "time": 34.892907,
          "name": "G4",
          "midi": 67,
          "duration": 0.233871,
          "velocity": 0.354331
        },
        {
          "time": 35.134842,
          "name": "C#4",
          "midi": 61,
          "duration": 0.233871,
          "velocity": 0.354331
        },
        {
          "time": 35.183229,
          "name": "A#3",
          "midi": 58,
          "duration": 0.959677,
          "velocity": 0.535433
        },
        {
          "time": 35.263874,
          "name": "C#4",
          "midi": 61,
          "duration": 0.879032,
          "velocity": 0.535433
        },
        {
          "time": 35.344519,
          "name": "E4",
          "midi": 64,
          "duration": 0.798387,
          "velocity": 0.535433
        },
        {
          "time": 35.376778,
          "name": "E4",
          "midi": 64,
          "duration": 0.233871,
          "velocity": 0.354331
        },
        {
          "time": 35.425165,
          "name": "A#4",
          "midi": 70,
          "duration": 0.717742,
          "velocity": 0.535433
        },
        {
          "time": 35.618713,
          "name": "C#5",
          "midi": 73,
          "duration": 0.233871,
          "velocity": 0.354331
        },
        {
          "time": 35.860649,
          "name": "A#4",
          "midi": 70,
          "duration": 0.233871,
          "velocity": 0.354331
        },
        {
          "time": 36.102584,
          "name": "C#4",
          "midi": 61,
          "duration": 0.233871,
          "velocity": 0.354331
        },
        {
          "time": 36.34452,
          "name": "E4",
          "midi": 64,
          "duration": 0.233871,
          "velocity": 0.354331
        },
        {
          "time": 36.586455,
          "name": "C#5",
          "midi": 73,
          "duration": 0.233871,
          "velocity": 0.354331
        },
        {
          "time": 36.828391,
          "name": "A#4",
          "midi": 70,
          "duration": 0.233871,
          "velocity": 0.354331
        },
        {
          "time": 37.070326,
          "name": "C#4",
          "midi": 61,
          "duration": 0.233871,
          "velocity": 0.354331
        },
        {
          "time": 37.312262,
          "name": "E4",
          "midi": 64,
          "duration": 0.233871,
          "velocity": 0.354331
        },
        {
          "time": 37.554197,
          "name": "C#5",
          "midi": 73,
          "duration": 0.233871,
          "velocity": 0.354331
        },
        {
          "time": 37.796133,
          "name": "A#4",
          "midi": 70,
          "duration": 0.233871,
          "velocity": 0.354331
        },
        {
          "time": 38.038068,
          "name": "C#4",
          "midi": 61,
          "duration": 0.233871,
          "velocity": 0.354331
        },
        {
          "time": 38.086455,
          "name": "A#4",
          "midi": 70,
          "duration": 0.959677,
          "velocity": 0.535433
        },
        {
          "time": 38.1671,
          "name": "C#5",
          "midi": 73,
          "duration": 0.879032,
          "velocity": 0.535433
        },
        {
          "time": 38.247745,
          "name": "E5",
          "midi": 76,
          "duration": 0.798387,
          "velocity": 0.535433
        },
        {
          "time": 38.280004,
          "name": "E4",
          "midi": 64,
          "duration": 0.233871,
          "velocity": 0.354331
        },
        {
          "time": 38.328391,
          "name": "A#5",
          "midi": 82,
          "duration": 0.717742,
          "velocity": 0.535433
        },
        {
          "time": 38.521939,
          "name": "C#5",
          "midi": 73,
          "duration": 0.233871,
          "velocity": 0.354331
        },
        {
          "time": 38.763875,
          "name": "A#4",
          "midi": 70,
          "duration": 0.233871,
          "velocity": 0.354331
        },
        {
          "time": 39.00581,
          "name": "C#4",
          "midi": 61,
          "duration": 0.233871,
          "velocity": 0.354331
        },
        {
          "time": 39.247746,
          "name": "E4",
          "midi": 64,
          "duration": 0.233871,
          "velocity": 0.354331
        },
        {
          "time": 39.489681,
          "name": "C#5",
          "midi": 73,
          "duration": 0.233871,
          "velocity": 0.354331
        },
        {
          "time": 39.731617,
          "name": "A#4",
          "midi": 70,
          "duration": 0.233871,
          "velocity": 0.354331
        },
        {
          "time": 39.973552,
          "name": "C#4",
          "midi": 61,
          "duration": 0.233871,
          "velocity": 0.354331
        },
        {
          "time": 40.215488,
          "name": "E4",
          "midi": 64,
          "duration": 0.233871,
          "velocity": 0.354331
        },
        {
          "time": 40.457423,
          "name": "C#5",
          "midi": 73,
          "duration": 0.233871,
          "velocity": 0.354331
        },
        {
          "time": 40.699359,
          "name": "A#4",
          "midi": 70,
          "duration": 0.233871,
          "velocity": 0.354331
        },
        {
          "time": 40.941294,
          "name": "B3",
          "midi": 59,
          "duration": 0.233871,
          "velocity": 0.354331
        },
        {
          "time": 41.18323,
          "name": "D4",
          "midi": 62,
          "duration": 0.233871,
          "velocity": 0.354331
        },
        {
          "time": 41.231617,
          "name": "D4",
          "midi": 62,
          "duration": 0.717742,
          "velocity": 0.535433
        },
        {
          "time": 41.312262,
          "name": "F#4",
          "midi": 66,
          "duration": 0.637097,
          "velocity": 0.535433
        },
        {
          "time": 41.392907,
          "name": "B4",
          "midi": 71,
          "duration": 0.556452,
          "velocity": 0.535433
        },
        {
          "time": 41.425165,
          "name": "B4",
          "midi": 71,
          "duration": 0.233871,
          "velocity": 0.354331
        },
        {
          "time": 41.473552,
          "name": "D5",
          "midi": 74,
          "duration": 0.475806,
          "velocity": 0.535433
        },
        {
          "time": 41.667101,
          "name": "F#4",
          "midi": 66,
          "duration": 0.233871,
          "velocity": 0.354331
        },
        {
          "time": 41.909036,
          "name": "B3",
          "midi": 59,
          "duration": 0.233871,
          "velocity": 0.354331
        },
        {
          "time": 42.150972,
          "name": "D4",
          "midi": 62,
          "duration": 0.233871,
          "velocity": 0.354331
        },
        {
          "time": 42.392907,
          "name": "B4",
          "midi": 71,
          "duration": 0.233871,
          "velocity": 0.354331
        },
        {
          "time": 42.634843,
          "name": "F#4",
          "midi": 66,
          "duration": 0.233871,
          "velocity": 0.354331
        },
        {
          "time": 42.876778,
          "name": "B3",
          "midi": 59,
          "duration": 0.233871,
          "velocity": 0.354331
        },
        {
          "time": 43.118714,
          "name": "D4",
          "midi": 62,
          "duration": 0.233743,
          "velocity": 0.354331
        },
        {
          "time": 43.360393,
          "name": "B4",
          "midi": 71,
          "duration": 0.230159,
          "velocity": 0.354331
        },
        {
          "time": 43.598488,
          "name": "F#4",
          "midi": 66,
          "duration": 0.230035,
          "velocity": 0.354331
        },
        {
          "time": 43.836335,
          "name": "A#3",
          "midi": 58,
          "duration": 0.226563,
          "velocity": 0.354331
        },
        {
          "time": 44.07071,
          "name": "E4",
          "midi": 64,
          "duration": 0.226442,
          "velocity": 0.354331
        },
        {
          "time": 44.117585,
          "name": "A#3",
          "midi": 58,
          "duration": 0.686444,
          "velocity": 0.535433
        },
        {
          "time": 44.19571,
          "name": "E4",
          "midi": 64,
          "duration": 0.608319,
          "velocity": 0.535433
        },
        {
          "time": 44.273835,
          "name": "F#4",
          "midi": 66,
          "duration": 0.530194,
          "velocity": 0.535433
        },
        {
          "time": 44.304845,
          "name": "A#4",
          "midi": 70,
          "duration": 0.223077,
          "velocity": 0.354331
        },
        {
          "time": 44.350999,
          "name": "A#4",
          "midi": 70,
          "duration": 0.45303,
          "velocity": 0.535433
        },
        {
          "time": 44.535614,
          "name": "F#4",
          "midi": 66,
          "duration": 0.22296,
          "velocity": 0.354331
        },
        {
          "time": 44.766151,
          "name": "A#3",
          "midi": 58,
          "duration": 0.219697,
          "velocity": 0.354331
        },
        {
          "time": 44.993423,
          "name": "E4",
          "midi": 64,
          "duration": 0.219814,
          "velocity": 0.362205
        },
        {
          "time": 45.220929,
          "name": "A#4",
          "midi": 70,
          "duration": 0.223077,
          "velocity": 0.370079
        },
        {
          "time": 45.451698,
          "name": "F#4",
          "midi": 66,
          "duration": 0.223197,
          "velocity": 0.377953
        },
        {
          "time": 45.682708,
          "name": "A#3",
          "midi": 58,
          "duration": 0.226563,
          "velocity": 0.385827
        },
        {
          "time": 45.917083,
          "name": "E4",
          "midi": 64,
          "duration": 0.226687,
          "velocity": 0.393701
        },
        {
          "time": 46.151706,
          "name": "A#4",
          "midi": 70,
          "duration": 0.230159,
          "velocity": 0.401575
        },
        {
          "time": 46.389801,
          "name": "F#4",
          "midi": 66,
          "duration": 0.230287,
          "velocity": 0.409449
        },
        {
          "time": 46.628153,
          "name": "D4",
          "midi": 62,
          "duration": 0.233871,
          "velocity": 0.417323
        },
        {
          "time": 46.870088,
          "name": "F#4",
          "midi": 66,
          "duration": 0.233871,
          "velocity": 0.417323
        },
        {
          "time": 46.918475,
          "name": "D4",
          "midi": 62,
          "duration": 0.717742,
          "velocity": 0.535433
        },
        {
          "time": 46.99912,
          "name": "F#4",
          "midi": 66,
          "duration": 0.637097,
          "velocity": 0.535433
        },
        {
          "time": 47.079765,
          "name": "B4",
          "midi": 71,
          "duration": 0.556452,
          "velocity": 0.535433
        },
        {
          "time": 47.112024,
          "name": "B4",
          "midi": 71,
          "duration": 0.233871,
          "velocity": 0.417323
        },
        {
          "time": 47.160411,
          "name": "B3",
          "midi": 59,
          "duration": 0.475806,
          "velocity": 0.535433
        },
        {
          "time": 47.353959,
          "name": "F#4",
          "midi": 66,
          "duration": 0.233871,
          "velocity": 0.417323
        },
        {
          "time": 47.595895,
          "name": "D4",
          "midi": 62,
          "duration": 0.233871,
          "velocity": 0.417323
        },
        {
          "time": 47.83783,
          "name": "F#4",
          "midi": 66,
          "duration": 0.233871,
          "velocity": 0.409449
        },
        {
          "time": 48.079766,
          "name": "B4",
          "midi": 71,
          "duration": 0.233871,
          "velocity": 0.401575
        },
        {
          "time": 48.321701,
          "name": "F#4",
          "midi": 66,
          "duration": 0.233871,
          "velocity": 0.393701
        },
        {
          "time": 48.563637,
          "name": "D4",
          "midi": 62,
          "duration": 0.233871,
          "velocity": 0.385827
        },
        {
          "time": 48.805572,
          "name": "F#4",
          "midi": 66,
          "duration": 0.233871,
          "velocity": 0.377953
        },
        {
          "time": 49.047508,
          "name": "B4",
          "midi": 71,
          "duration": 0.233871,
          "velocity": 0.370079
        },
        {
          "time": 49.289443,
          "name": "F#4",
          "midi": 66,
          "duration": 0.233871,
          "velocity": 0.362205
        },
        {
          "time": 49.531379,
          "name": "D4",
          "midi": 62,
          "duration": 0.233871,
          "velocity": 0.354331
        },
        {
          "time": 49.579766,
          "name": "F#4",
          "midi": 66,
          "duration": 0.959677,
          "velocity": 0.535433
        },
        {
          "time": 49.636217,
          "name": "B4",
          "midi": 71,
          "duration": 0.895161,
          "velocity": 0.535433
        },
        {
          "time": 49.700733,
          "name": "D5",
          "midi": 74,
          "duration": 0.83871,
          "velocity": 0.535433
        },
        {
          "time": 49.757185,
          "name": "F#5",
          "midi": 78,
          "duration": 0.774194,
          "velocity": 0.535433
        },
        {
          "time": 49.773314,
          "name": "F#4",
          "midi": 66,
          "duration": 0.233871,
          "velocity": 0.354331
        },
        {
          "time": 49.821701,
          "name": "B5",
          "midi": 83,
          "duration": 0.717742,
          "velocity": 0.535433
        },
        {
          "time": 49.878153,
          "name": "D6",
          "midi": 86,
          "duration": 0.653226,
          "velocity": 0.535433
        },
        {
          "time": 49.942669,
          "name": "F#6",
          "midi": 90,
          "duration": 0.596774,
          "velocity": 0.535433
        },
        {
          "time": 49.999121,
          "name": "B6",
          "midi": 95,
          "duration": 0.532258,
          "velocity": 0.535433
        },
        {
          "time": 50.01525,
          "name": "B4",
          "midi": 71,
          "duration": 0.233871,
          "velocity": 0.354331
        },
        {
          "time": 50.257185,
          "name": "F#4",
          "midi": 66,
          "duration": 0.233871,
          "velocity": 0.354331
        },
        {
          "time": 50.499121,
          "name": "D4",
          "midi": 62,
          "duration": 0.233871,
          "velocity": 0.354331
        },
        {
          "time": 50.741056,
          "name": "F#4",
          "midi": 66,
          "duration": 0.233871,
          "velocity": 0.354331
        },
        {
          "time": 50.982992,
          "name": "B4",
          "midi": 71,
          "duration": 0.233871,
          "velocity": 0.354331
        },
        {
          "time": 51.224927,
          "name": "F#4",
          "midi": 66,
          "duration": 0.233871,
          "velocity": 0.354331
        },
        {
          "time": 51.466863,
          "name": "D4",
          "midi": 62,
          "duration": 0.233871,
          "velocity": 0.354331
        },
        {
          "time": 51.708798,
          "name": "F#4",
          "midi": 66,
          "duration": 0.233871,
          "velocity": 0.354331
        },
        {
          "time": 51.950734,
          "name": "B4",
          "midi": 71,
          "duration": 0.233871,
          "velocity": 0.354331
        },
        {
          "time": 52.192669,
          "name": "F#4",
          "midi": 66,
          "duration": 0.233382,
          "velocity": 0.354331
        },
        {
          "time": 52.433627,
          "name": "D4",
          "midi": 62,
          "duration": 0.219697,
          "velocity": 0.354331
        },
        {
          "time": 52.6609,
          "name": "G4",
          "midi": 67,
          "duration": 0.219697,
          "velocity": 0.354331
        },
        {
          "time": 52.888173,
          "name": "D5",
          "midi": 74,
          "duration": 0.219697,
          "velocity": 0.354331
        },
        {
          "time": 53.115445,
          "name": "B4",
          "midi": 71,
          "duration": 0.219697,
          "velocity": 0.354331
        },
        {
          "time": 53.342718,
          "name": "D4",
          "midi": 62,
          "duration": 0.219697,
          "velocity": 0.354331
        },
        {
          "time": 53.388173,
          "name": "D6",
          "midi": 86,
          "duration": 0.757576,
          "velocity": 0.535433
        },
        {
          "time": 53.388173,
          "name": "D7",
          "midi": 98,
          "duration": 0.757576,
          "velocity": 0.535433
        },
        {
          "time": 53.569991,
          "name": "G4",
          "midi": 67,
          "duration": 0.219697,
          "velocity": 0.354331
        },
        {
          "time": 53.797264,
          "name": "D5",
          "midi": 74,
          "duration": 0.219697,
          "velocity": 0.354331
        },
        {
          "time": 54.024536,
          "name": "B4",
          "midi": 71,
          "duration": 0.220186,
          "velocity": 0.354331
        },
        {
          "time": 54.252787,
          "name": "D4",
          "midi": 62,
          "duration": 0.233871,
          "velocity": 0.354331
        },
        {
          "time": 54.301174,
          "name": "D6",
          "midi": 86,
          "duration": 0.806452,
          "velocity": 0.535433
        },
        {
          "time": 54.301174,
          "name": "D7",
          "midi": 98,
          "duration": 0.806452,
          "velocity": 0.535433
        },
        {
          "time": 54.494722,
          "name": "G4",
          "midi": 67,
          "duration": 0.233871,
          "velocity": 0.354331
        },
        {
          "time": 54.736658,
          "name": "D5",
          "midi": 74,
          "duration": 0.233871,
          "velocity": 0.354331
        },
        {
          "time": 54.978593,
          "name": "B4",
          "midi": 71,
          "duration": 0.233382,
          "velocity": 0.354331
        },
        {
          "time": 55.219551,
          "name": "C#4",
          "midi": 61,
          "duration": 0.219697,
          "velocity": 0.354331
        },
        {
          "time": 55.265006,
          "name": "D6",
          "midi": 86,
          "duration": 0.757576,
          "velocity": 0.535433
        },
        {
          "time": 55.265006,
          "name": "D7",
          "midi": 98,
          "duration": 0.757576,
          "velocity": 0.535433
        },
        {
          "time": 55.446824,
          "name": "E4",
          "midi": 64,
          "duration": 0.219697,
          "velocity": 0.354331
        },
        {
          "time": 55.674097,
          "name": "C#5",
          "midi": 73,
          "duration": 0.219697,
          "velocity": 0.354331
        },
        {
          "time": 55.901369,
          "name": "G4",
          "midi": 67,
          "duration": 0.219697,
          "velocity": 0.354331
        },
        {
          "time": 56.128642,
          "name": "C#4",
          "midi": 61,
          "duration": 0.219697,
          "velocity": 0.354331
        },
        {
          "time": 56.174097,
          "name": "D6",
          "midi": 86,
          "duration": 0.757576,
          "velocity": 0.535433
        },
        {
          "time": 56.174097,
          "name": "D7",
          "midi": 98,
          "duration": 0.757576,
          "velocity": 0.535433
        },
        {
          "time": 56.355915,
          "name": "E4",
          "midi": 64,
          "duration": 0.219697,
          "velocity": 0.354331
        },
        {
          "time": 56.583188,
          "name": "C#5",
          "midi": 73,
          "duration": 0.219697,
          "velocity": 0.354331
        },
        {
          "time": 56.81046,
          "name": "G4",
          "midi": 67,
          "duration": 0.220186,
          "velocity": 0.354331
        },
        {
          "time": 57.038711,
          "name": "C#4",
          "midi": 61,
          "duration": 0.233871,
          "velocity": 0.354331
        },
        {
          "time": 57.087098,
          "name": "D6",
          "midi": 86,
          "duration": 0.806452,
          "velocity": 0.535433
        },
        {
          "time": 57.087098,
          "name": "D7",
          "midi": 98,
          "duration": 0.806452,
          "velocity": 0.535433
        },
        {
          "time": 57.280646,
          "name": "E4",
          "midi": 64,
          "duration": 0.233871,
          "velocity": 0.354331
        },
        {
          "time": 57.522582,
          "name": "C#5",
          "midi": 73,
          "duration": 0.233871,
          "velocity": 0.354331
        },
        {
          "time": 57.764517,
          "name": "G4",
          "midi": 67,
          "duration": 0.233871,
          "velocity": 0.354331
        },
        {
          "time": 58.006453,
          "name": "C4",
          "midi": 60,
          "duration": 0.233871,
          "velocity": 0.354331
        },
        {
          "time": 58.248388,
          "name": "D4",
          "midi": 62,
          "duration": 0.233871,
          "velocity": 0.354331
        },
        {
          "time": 58.490324,
          "name": "C5",
          "midi": 72,
          "duration": 0.233871,
          "velocity": 0.354331
        },
        {
          "time": 58.732259,
          "name": "G4",
          "midi": 67,
          "duration": 0.233871,
          "velocity": 0.354331
        },
        {
          "time": 58.974195,
          "name": "C4",
          "midi": 60,
          "duration": 0.233871,
          "velocity": 0.354331
        },
        {
          "time": 59.022582,
          "name": "D6",
          "midi": 86,
          "duration": 0.806452,
          "velocity": 0.535433
        },
        {
          "time": 59.022582,
          "name": "D7",
          "midi": 98,
          "duration": 0.806452,
          "velocity": 0.535433
        },
        {
          "time": 59.21613,
          "name": "D4",
          "midi": 62,
          "duration": 0.233871,
          "velocity": 0.354331
        },
        {
          "time": 59.458066,
          "name": "C5",
          "midi": 72,
          "duration": 0.233871,
          "velocity": 0.354331
        },
        {
          "time": 59.700001,
          "name": "G4",
          "midi": 67,
          "duration": 0.233871,
          "velocity": 0.354331
        },
        {
          "time": 59.941937,
          "name": "C4",
          "midi": 60,
          "duration": 0.233871,
          "velocity": 0.354331
        },
        {
          "time": 59.990324,
          "name": "D6",
          "midi": 86,
          "duration": 0.806452,
          "velocity": 0.535433
        },
        {
          "time": 59.990324,
          "name": "D7",
          "midi": 98,
          "duration": 0.806452,
          "velocity": 0.535433
        },
        {
          "time": 60.183872,
          "name": "D4",
          "midi": 62,
          "duration": 0.233871,
          "velocity": 0.354331
        },
        {
          "time": 60.425808,
          "name": "C5",
          "midi": 72,
          "duration": 0.233871,
          "velocity": 0.354331
        },
        {
          "time": 60.667743,
          "name": "G4",
          "midi": 67,
          "duration": 0.233871,
          "velocity": 0.354331
        },
        {
          "time": 60.909679,
          "name": "C4",
          "midi": 60,
          "duration": 0.233871,
          "velocity": 0.354331
        },
        {
          "time": 60.958066,
          "name": "D6",
          "midi": 86,
          "duration": 0.806452,
          "velocity": 0.535433
        },
        {
          "time": 60.958066,
          "name": "D7",
          "midi": 98,
          "duration": 0.806452,
          "velocity": 0.535433
        },
        {
          "time": 61.151614,
          "name": "D4",
          "midi": 62,
          "duration": 0.233871,
          "velocity": 0.354331
        },
        {
          "time": 61.39355,
          "name": "C5",
          "midi": 72,
          "duration": 0.233871,
          "velocity": 0.354331
        },
        {
          "time": 61.635485,
          "name": "G4",
          "midi": 67,
          "duration": 0.233871,
          "velocity": 0.354331
        },
        {
          "time": 61.877421,
          "name": "C4",
          "midi": 60,
          "duration": 0.233871,
          "velocity": 0.354331
        },
        {
          "time": 61.925808,
          "name": "D6",
          "midi": 86,
          "duration": 0.806452,
          "velocity": 0.535433
        },
        {
          "time": 61.925808,
          "name": "D7",
          "midi": 98,
          "duration": 0.806452,
          "velocity": 0.535433
        },
        {
          "time": 62.119356,
          "name": "D4",
          "midi": 62,
          "duration": 0.233871,
          "velocity": 0.354331
        },
        {
          "time": 62.361292,
          "name": "C5",
          "midi": 72,
          "duration": 0.233871,
          "velocity": 0.354331
        },
        {
          "time": 62.603227,
          "name": "G4",
          "midi": 67,
          "duration": 0.233871,
          "velocity": 0.354331
        },
        {
          "time": 62.845163,
          "name": "C4",
          "midi": 60,
          "duration": 0.233871,
          "velocity": 0.354331
        },
        {
          "time": 62.89355,
          "name": "D6",
          "midi": 86,
          "duration": 0.806452,
          "velocity": 0.535433
        },
        {
          "time": 62.89355,
          "name": "D7",
          "midi": 98,
          "duration": 0.806452,
          "velocity": 0.535433
        },
        {
          "time": 63.087098,
          "name": "D4",
          "midi": 62,
          "duration": 0.233871,
          "velocity": 0.354331
        },
        {
          "time": 63.329034,
          "name": "C5",
          "midi": 72,
          "duration": 0.233871,
          "velocity": 0.354331
        },
        {
          "time": 63.570969,
          "name": "G4",
          "midi": 67,
          "duration": 0.233382,
          "velocity": 0.354331
        },
        {
          "time": 63.811927,
          "name": "C4",
          "midi": 60,
          "duration": 0.219697,
          "velocity": 0.354331
        },
        {
          "time": 64.0392,
          "name": "F4",
          "midi": 65,
          "duration": 0.219697,
          "velocity": 0.354331
        },
        {
          "time": 64.266473,
          "name": "C5",
          "midi": 72,
          "duration": 0.219697,
          "velocity": 0.354331
        },
        {
          "time": 64.493745,
          "name": "A4",
          "midi": 69,
          "duration": 0.219697,
          "velocity": 0.354331
        },
        {
          "time": 64.721018,
          "name": "C4",
          "midi": 60,
          "duration": 0.219697,
          "velocity": 0.354331
        },
        {
          "time": 64.766473,
          "name": "C6",
          "midi": 84,
          "duration": 0.757576,
          "velocity": 0.535433
        },
        {
          "time": 64.766473,
          "name": "C7",
          "midi": 96,
          "duration": 0.757576,
          "velocity": 0.535433
        },
        {
          "time": 64.948291,
          "name": "F4",
          "midi": 65,
          "duration": 0.219697,
          "velocity": 0.354331
        },
        {
          "time": 65.175564,
          "name": "C5",
          "midi": 72,
          "duration": 0.219697,
          "velocity": 0.354331
        },
        {
          "time": 65.402836,
          "name": "A4",
          "midi": 69,
          "duration": 0.220186,
          "velocity": 0.354331
        },
        {
          "time": 65.631087,
          "name": "C4",
          "midi": 60,
          "duration": 0.233871,
          "velocity": 0.354331
        },
        {
          "time": 65.679474,
          "name": "C6",
          "midi": 84,
          "duration": 0.806452,
          "velocity": 0.535433
        },
        {
          "time": 65.679474,
          "name": "C7",
          "midi": 96,
          "duration": 0.806452,
          "velocity": 0.535433
        },
        {
          "time": 65.873022,
          "name": "F4",
          "midi": 65,
          "duration": 0.233871,
          "velocity": 0.354331
        },
        {
          "time": 66.114958,
          "name": "C5",
          "midi": 72,
          "duration": 0.233871,
          "velocity": 0.354331
        },
        {
          "time": 66.356893,
          "name": "A4",
          "midi": 69,
          "duration": 0.233382,
          "velocity": 0.354331
        },
        {
          "time": 66.597851,
          "name": "B3",
          "midi": 59,
          "duration": 0.219697,
          "velocity": 0.354331
        },
        {
          "time": 66.643306,
          "name": "C6",
          "midi": 84,
          "duration": 0.757576,
          "velocity": 0.535433
        },
        {
          "time": 66.643306,
          "name": "C7",
          "midi": 96,
          "duration": 0.757576,
          "velocity": 0.535433
        },
        {
          "time": 66.825124,
          "name": "D4",
          "midi": 62,
          "duration": 0.219697,
          "velocity": 0.354331
        },
        {
          "time": 67.052397,
          "name": "B4",
          "midi": 71,
          "duration": 0.219697,
          "velocity": 0.354331
        },
        {
          "time": 67.279669,
          "name": "F4",
          "midi": 65,
          "duration": 0.219697,
          "velocity": 0.354331
        },
        {
          "time": 67.506942,
          "name": "B3",
          "midi": 59,
          "duration": 0.219697,
          "velocity": 0.354331
        },
        {
          "time": 67.552397,
          "name": "C6",
          "midi": 84,
          "duration": 0.757576,
          "velocity": 0.535433
        },
        {
          "time": 67.552397,
          "name": "C7",
          "midi": 96,
          "duration": 0.757576,
          "velocity": 0.535433
        },
        {
          "time": 67.734215,
          "name": "D4",
          "midi": 62,
          "duration": 0.219697,
          "velocity": 0.354331
        },
        {
          "time": 67.961488,
          "name": "B4",
          "midi": 71,
          "duration": 0.219697,
          "velocity": 0.354331
        },
        {
          "time": 68.18876,
          "name": "F4",
          "midi": 65,
          "duration": 0.220186,
          "velocity": 0.354331
        },
        {
          "time": 68.417011,
          "name": "B3",
          "midi": 59,
          "duration": 0.233871,
          "velocity": 0.354331
        },
        {
          "time": 68.465398,
          "name": "C6",
          "midi": 84,
          "duration": 0.806452,
          "velocity": 0.535433
        },
        {
          "time": 68.465398,
          "name": "C7",
          "midi": 96,
          "duration": 0.806452,
          "velocity": 0.535433
        },
        {
          "time": 68.658946,
          "name": "D4",
          "midi": 62,
          "duration": 0.233871,
          "velocity": 0.354331
        },
        {
          "time": 68.900882,
          "name": "B4",
          "midi": 71,
          "duration": 0.233871,
          "velocity": 0.354331
        },
        {
          "time": 69.142817,
          "name": "F4",
          "midi": 65,
          "duration": 0.233871,
          "velocity": 0.354331
        },
        {
          "time": 69.384753,
          "name": "A#3",
          "midi": 58,
          "duration": 0.233871,
          "velocity": 0.354331
        },
        {
          "time": 69.626688,
          "name": "C4",
          "midi": 60,
          "duration": 0.233871,
          "velocity": 0.354331
        },
        {
          "time": 69.868624,
          "name": "A#4",
          "midi": 70,
          "duration": 0.233871,
          "velocity": 0.354331
        },
        {
          "time": 70.110559,
          "name": "F4",
          "midi": 65,
          "duration": 0.233871,
          "velocity": 0.354331
        },
        {
          "time": 70.352495,
          "name": "A#3",
          "midi": 58,
          "duration": 0.233871,
          "velocity": 0.354331
        },
        {
          "time": 70.400882,
          "name": "C6",
          "midi": 84,
          "duration": 0.806452,
          "velocity": 0.535433
        },
        {
          "time": 70.400882,
          "name": "C7",
          "midi": 96,
          "duration": 0.806452,
          "velocity": 0.535433
        },
        {
          "time": 70.59443,
          "name": "C4",
          "midi": 60,
          "duration": 0.233871,
          "velocity": 0.354331
        },
        {
          "time": 70.836366,
          "name": "A#4",
          "midi": 70,
          "duration": 0.233871,
          "velocity": 0.354331
        },
        {
          "time": 71.078301,
          "name": "F4",
          "midi": 65,
          "duration": 0.233871,
          "velocity": 0.354331
        },
        {
          "time": 71.320237,
          "name": "A#3",
          "midi": 58,
          "duration": 0.233871,
          "velocity": 0.354331
        },
        {
          "time": 71.368624,
          "name": "C6",
          "midi": 84,
          "duration": 0.806452,
          "velocity": 0.535433
        },
        {
          "time": 71.368624,
          "name": "C7",
          "midi": 96,
          "duration": 0.806452,
          "velocity": 0.535433
        },
        {
          "time": 71.562172,
          "name": "C4",
          "midi": 60,
          "duration": 0.233871,
          "velocity": 0.354331
        },
        {
          "time": 71.804108,
          "name": "A#4",
          "midi": 70,
          "duration": 0.233871,
          "velocity": 0.354331
        },
        {
          "time": 72.046043,
          "name": "F4",
          "midi": 65,
          "duration": 0.233871,
          "velocity": 0.354331
        },
        {
          "time": 72.287979,
          "name": "A#3",
          "midi": 58,
          "duration": 0.233871,
          "velocity": 0.354331
        },
        {
          "time": 72.529914,
          "name": "C4",
          "midi": 60,
          "duration": 0.233871,
          "velocity": 0.354331
        },
        {
          "time": 72.77185,
          "name": "A#4",
          "midi": 70,
          "duration": 0.233871,
          "velocity": 0.354331
        },
        {
          "time": 73.013785,
          "name": "E4",
          "midi": 64,
          "duration": 0.233871,
          "velocity": 0.354331
        },
        {
          "time": 73.255721,
          "name": "A#3",
          "midi": 58,
          "duration": 0.233871,
          "velocity": 0.354331
        },
        {
          "time": 73.304108,
          "name": "C6",
          "midi": 84,
          "duration": 0.806452,
          "velocity": 0.535433
        },
        {
          "time": 73.304108,
          "name": "C7",
          "midi": 96,
          "duration": 0.806452,
          "velocity": 0.535433
        },
        {
          "time": 73.497656,
          "name": "C4",
          "midi": 60,
          "duration": 0.233871,
          "velocity": 0.354331
        },
        {
          "time": 73.739592,
          "name": "A#4",
          "midi": 70,
          "duration": 0.233871,
          "velocity": 0.354331
        },
        {
          "time": 73.981527,
          "name": "E4",
          "midi": 64,
          "duration": 0.233871,
          "velocity": 0.354331
        },
        {
          "time": 74.223463,
          "name": "A#3",
          "midi": 58,
          "duration": 0.233871,
          "velocity": 0.354331
        },
        {
          "time": 74.27185,
          "name": "C6",
          "midi": 84,
          "duration": 0.806452,
          "velocity": 0.535433
        },
        {
          "time": 74.27185,
          "name": "C7",
          "midi": 96,
          "duration": 0.806452,
          "velocity": 0.535433
        },
        {
          "time": 74.465398,
          "name": "C4",
          "midi": 60,
          "duration": 0.233871,
          "velocity": 0.354331
        },
        {
          "time": 74.707334,
          "name": "A#4",
          "midi": 70,
          "duration": 0.233871,
          "velocity": 0.354331
        },
        {
          "time": 74.949269,
          "name": "E4",
          "midi": 64,
          "duration": 0.233499,
          "velocity": 0.354331
        },
        {
          "time": 75.19046,
          "name": "A3",
          "midi": 57,
          "duration": 0.223077,
          "velocity": 0.354331
        },
        {
          "time": 75.421229,
          "name": "E4",
          "midi": 64,
          "duration": 0.223077,
          "velocity": 0.354331
        },
        {
          "time": 75.651999,
          "name": "A4",
          "midi": 69,
          "duration": 0.223077,
          "velocity": 0.354331
        },
        {
          "time": 75.882768,
          "name": "E4",
          "midi": 64,
          "duration": 0.223077,
          "velocity": 0.354331
        },
        {
          "time": 76.113537,
          "name": "A3",
          "midi": 57,
          "duration": 0.223077,
          "velocity": 0.354331
        },
        {
          "time": 76.344306,
          "name": "E4",
          "midi": 64,
          "duration": 0.223077,
          "velocity": 0.354331
        },
        {
          "time": 76.575076,
          "name": "A4",
          "midi": 69,
          "duration": 0.223077,
          "velocity": 0.354331
        },
        {
          "time": 76.805845,
          "name": "E4",
          "midi": 64,
          "duration": 0.223077,
          "velocity": 0.354331
        },
        {
          "time": 77.036614,
          "name": "A3",
          "midi": 57,
          "duration": 0.223077,
          "velocity": 0.354331
        },
        {
          "time": 77.267383,
          "name": "B3",
          "midi": 59,
          "duration": 0.223077,
          "velocity": 0.354331
        },
        {
          "time": 77.498153,
          "name": "A4",
          "midi": 69,
          "duration": 0.223077,
          "velocity": 0.354331
        },
        {
          "time": 77.728922,
          "name": "D4",
          "midi": 62,
          "duration": 0.223077,
          "velocity": 0.354331
        },
        {
          "time": 77.959691,
          "name": "A3",
          "midi": 57,
          "duration": 0.223077,
          "velocity": 0.354331
        },
        {
          "time": 78.19046,
          "name": "C4",
          "midi": 60,
          "duration": 0.223077,
          "velocity": 0.354331
        },
        {
          "time": 78.42123,
          "name": "A4",
          "midi": 69,
          "duration": 0.223077,
          "velocity": 0.354331
        },
        {
          "time": 78.651999,
          "name": "E4",
          "midi": 64,
          "duration": 0.223077,
          "velocity": 0.354331
        },
        {
          "time": 78.882768,
          "name": "A3",
          "midi": 57,
          "duration": 0.223077,
          "velocity": 0.354331
        },
        {
          "time": 79.113537,
          "name": "C4",
          "midi": 60,
          "duration": 0.223077,
          "velocity": 0.354331
        },
        {
          "time": 79.344307,
          "name": "A4",
          "midi": 69,
          "duration": 0.223077,
          "velocity": 0.354331
        },
        {
          "time": 79.575076,
          "name": "E4",
          "midi": 64,
          "duration": 0.223077,
          "velocity": 0.354331
        },
        {
          "time": 79.805845,
          "name": "A3",
          "midi": 57,
          "duration": 0.223077,
          "velocity": 0.354331
        },
        {
          "time": 80.036614,
          "name": "C4",
          "midi": 60,
          "duration": 0.223077,
          "velocity": 0.354331
        },
        {
          "time": 80.267384,
          "name": "A4",
          "midi": 69,
          "duration": 0.223077,
          "velocity": 0.354331
        },
        {
          "time": 80.498153,
          "name": "E4",
          "midi": 64,
          "duration": 0.223718,
          "velocity": 0.354331
        },
        {
          "time": 80.730204,
          "name": "A3",
          "midi": 57,
          "duration": 0.241667,
          "velocity": 0.354331
        },
        {
          "time": 80.780204,
          "name": "A4",
          "midi": 69,
          "duration": 1.219796,
          "velocity": 0.535433
        },
        {
          "time": 80.780204,
          "name": "D5",
          "midi": 74,
          "duration": 1.219796,
          "velocity": 0.535433
        },
        {
          "time": 80.780204,
          "name": "F#5",
          "midi": 78,
          "duration": 1.219796,
          "velocity": 0.535433
        },
        {
          "time": 80.980204,
          "name": "D4",
          "midi": 62,
          "duration": 0.241667,
          "velocity": 0.354331
        },
        {
          "time": 81.230204,
          "name": "A4",
          "midi": 69,
          "duration": 0.241667,
          "velocity": 0.354331
        },
        {
          "time": 81.480204,
          "name": "F#4",
          "midi": 66,
          "duration": 0.241667,
          "velocity": 0.354331
        },
        {
          "time": 81.730204,
          "name": "A3",
          "midi": 57,
          "duration": 0.241667,
          "velocity": 0.354331
        },
        {
          "time": 81.980204,
          "name": "D4",
          "midi": 62,
          "duration": 0.05,
          "velocity": 0.354331
        }
      ]
    },
    {
      "id": 2,
      "instrument": "viola",
      "startTime": 0,
      "duration": 82.110204,
      "length": 64,
      "notes": [
        {
          "time": 6.887759,
          "name": "G4",
          "midi": 67,
          "duration": 0.895522,
          "velocity": 0.724409
        },
        {
          "time": 7.783281,
          "name": "F#4",
          "midi": 66,
          "duration": 0.90154,
          "velocity": 0.724409
        },
        {
          "time": 8.684821,
          "name": "B3",
          "midi": 59,
          "duration": 0.961724,
          "velocity": 0.724409
        },
        {
          "time": 9.646545,
          "name": "E4",
          "midi": 64,
          "duration": 0.895522,
          "velocity": 0.724409
        },
        {
          "time": 10.542067,
          "name": "D4",
          "midi": 62,
          "duration": 0.90154,
          "velocity": 0.724409
        },
        {
          "time": 11.443607,
          "name": "G3",
          "midi": 55,
          "duration": 0.967742,
          "velocity": 0.724409
        },
        {
          "time": 12.411349,
          "name": "A3",
          "midi": 57,
          "duration": 2.41129,
          "velocity": 0.787402
        },
        {
          "time": 14.830704,
          "name": "B3",
          "midi": 59,
          "duration": 0.475806,
          "velocity": 0.787402
        },
        {
          "time": 15.314575,
          "name": "C4",
          "midi": 60,
          "duration": 1.693548,
          "velocity": 0.787402
        },
        {
          "time": 18.217801,
          "name": "E3",
          "midi": 52,
          "duration": 1.693549,
          "velocity": 0.787402
        },
        {
          "time": 20.148398,
          "name": "F#3",
          "midi": 54,
          "duration": 0.454545,
          "velocity": 0.787402
        },
        {
          "time": 20.602943,
          "name": "G3",
          "midi": 55,
          "duration": 0.448019,
          "velocity": 0.787402
        },
        {
          "time": 21.058654,
          "name": "A3",
          "midi": 57,
          "duration": 0.461538,
          "velocity": 0.787402
        },
        {
          "time": 21.520193,
          "name": "B3",
          "midi": 59,
          "duration": 0.454928,
          "velocity": 0.787402
        },
        {
          "time": 21.982933,
          "name": "C4",
          "midi": 60,
          "duration": 0.46875,
          "velocity": 0.787402
        },
        {
          "time": 22.451683,
          "name": "D4",
          "midi": 62,
          "duration": 0.462054,
          "velocity": 0.787402
        },
        {
          "time": 22.921673,
          "name": "E4",
          "midi": 64,
          "duration": 0.476191,
          "velocity": 0.787402
        },
        {
          "time": 23.397864,
          "name": "F#4",
          "midi": 66,
          "duration": 0.469406,
          "velocity": 0.787402
        },
        {
          "time": 23.875334,
          "name": "B4",
          "midi": 71,
          "duration": 3.379032,
          "velocity": 0.787402
        },
        {
          "time": 29.675768,
          "name": "G4",
          "midi": 67,
          "duration": 0.895522,
          "velocity": 0.787402
        },
        {
          "time": 30.57129,
          "name": "F#4",
          "midi": 66,
          "duration": 0.90154,
          "velocity": 0.787402
        },
        {
          "time": 31.47283,
          "name": "B3",
          "midi": 59,
          "duration": 0.961724,
          "velocity": 0.787402
        },
        {
          "time": 32.434554,
          "name": "E4",
          "midi": 64,
          "duration": 0.895522,
          "velocity": 0.787402
        },
        {
          "time": 33.330076,
          "name": "D4",
          "midi": 62,
          "duration": 0.90154,
          "velocity": 0.787402
        },
        {
          "time": 34.231616,
          "name": "G3",
          "midi": 55,
          "duration": 0.967742,
          "velocity": 0.787402
        },
        {
          "time": 35.199358,
          "name": "A#3",
          "midi": 58,
          "duration": 2.41129,
          "velocity": 0.787402
        },
        {
          "time": 37.618713,
          "name": "B3",
          "midi": 59,
          "duration": 0.475806,
          "velocity": 0.787402
        },
        {
          "time": 38.102584,
          "name": "C#4",
          "midi": 61,
          "duration": 2.66129,
          "velocity": 0.787402
        },
        {
          "time": 41.00581,
          "name": "F#3",
          "midi": 54,
          "duration": 1.290323,
          "velocity": 0.787402
        },
        {
          "time": 42.457423,
          "name": "G#3",
          "midi": 56,
          "duration": 0.483871,
          "velocity": 0.787402
        },
        {
          "time": 42.941294,
          "name": "A#3",
          "midi": 58,
          "duration": 0.474654,
          "velocity": 0.787402
        },
        {
          "time": 43.423885,
          "name": "B3",
          "midi": 59,
          "duration": 0.47495,
          "velocity": 0.787402
        },
        {
          "time": 43.898835,
          "name": "C#4",
          "midi": 61,
          "duration": 0.459856,
          "velocity": 0.787402
        },
        {
          "time": 44.366384,
          "name": "D4",
          "midi": 62,
          "duration": 0.460373,
          "velocity": 0.787402
        },
        {
          "time": 44.826757,
          "name": "E4",
          "midi": 64,
          "duration": 0.448019,
          "velocity": 0.787402
        },
        {
          "time": 45.282468,
          "name": "F#4",
          "midi": 66,
          "duration": 0.46274,
          "velocity": 0.787402
        },
        {
          "time": 45.745208,
          "name": "G#4",
          "midi": 68,
          "duration": 0.462054,
          "velocity": 0.787402
        },
        {
          "time": 46.215198,
          "name": "A#4",
          "midi": 70,
          "duration": 0.477471,
          "velocity": 0.787402
        },
        {
          "time": 46.692669,
          "name": "D5",
          "midi": 74,
          "duration": 3.379032,
          "velocity": 0.787402
        },
        {
          "time": 52.494233,
          "name": "D5",
          "midi": 74,
          "duration": 0.909091,
          "velocity": 0.787402
        },
        {
          "time": 53.403324,
          "name": "B4",
          "midi": 71,
          "duration": 0.913979,
          "velocity": 0.787402
        },
        {
          "time": 54.317303,
          "name": "G4",
          "midi": 67,
          "duration": 0.962854,
          "velocity": 0.787402
        },
        {
          "time": 55.280157,
          "name": "E4",
          "midi": 64,
          "duration": 0.909091,
          "velocity": 0.787402
        },
        {
          "time": 56.189248,
          "name": "F#4",
          "midi": 66,
          "duration": 0.913979,
          "velocity": 0.787402
        },
        {
          "time": 57.103227,
          "name": "G4",
          "midi": 67,
          "duration": 0.967742,
          "velocity": 0.787402
        },
        {
          "time": 58.070969,
          "name": "D4",
          "midi": 62,
          "duration": 2.41129,
          "velocity": 0.787402
        },
        {
          "time": 60.490324,
          "name": "E4",
          "midi": 64,
          "duration": 0.475806,
          "velocity": 0.787402
        },
        {
          "time": 60.974195,
          "name": "F#4",
          "midi": 66,
          "duration": 1.693548,
          "velocity": 0.787402
        },
        {
          "time": 63.872533,
          "name": "C5",
          "midi": 72,
          "duration": 0.909091,
          "velocity": 0.787402
        },
        {
          "time": 64.781624,
          "name": "A4",
          "midi": 69,
          "duration": 0.913979,
          "velocity": 0.787402
        },
        {
          "time": 65.695603,
          "name": "F4",
          "midi": 65,
          "duration": 0.962854,
          "velocity": 0.787402
        },
        {
          "time": 66.658457,
          "name": "D4",
          "midi": 62,
          "duration": 0.909091,
          "velocity": 0.787402
        },
        {
          "time": 67.567548,
          "name": "E4",
          "midi": 64,
          "duration": 0.913979,
          "velocity": 0.787402
        },
        {
          "time": 68.481527,
          "name": "F4",
          "midi": 65,
          "duration": 0.967742,
          "velocity": 0.787402
        },
        {
          "time": 69.449269,
          "name": "C4",
          "midi": 60,
          "duration": 2.41129,
          "velocity": 0.787402
        },
        {
          "time": 71.868624,
          "name": "D4",
          "midi": 62,
          "duration": 0.475806,
          "velocity": 0.787402
        },
        {
          "time": 72.352495,
          "name": "E4",
          "midi": 64,
          "duration": 1.693549,
          "velocity": 0.787402
        },
        {
          "time": 75.251999,
          "name": "E4",
          "midi": 64,
          "duration": 0.923077,
          "velocity": 0.850394
        },
        {
          "time": 76.175076,
          "name": "A3",
          "midi": 57,
          "duration": 0.923077,
          "velocity": 0.850394
        },
        {
          "time": 77.098153,
          "name": "B3",
          "midi": 59,
          "duration": 0.923077,
          "velocity": 0.850394
        },
        {
          "time": 78.02123,
          "name": "C4",
          "midi": 60,
          "duration": 1.615385,
          "velocity": 0.850394
        },
        {
          "time": 79.867384,
          "name": "D4",
          "midi": 62,
          "duration": 0.453846,
          "velocity": 0.850394
        },
        {
          "time": 80.328922,
          "name": "E4",
          "midi": 64,
          "duration": 0.459615,
          "velocity": 0.850394
        },
        {
          "time": 80.796871,
          "name": "F#4",
          "midi": 66,
          "duration": 1.203129,
          "velocity": 0.850394
        }
      ]
    },
    {
      "id": 3,
      "instrument": "cello",
      "startTime": 0,
      "duration": 82.110204,
      "length": 203,
      "notes": [
        {
          "time": 1.462388,
          "name": "G2",
          "midi": 43,
          "duration": 0.447761,
          "velocity": 0.354331
        },
        {
          "time": 1.507164,
          "name": "G2",
          "midi": 43,
          "duration": 0.746268,
          "velocity": 0.354331
        },
        {
          "time": 1.507164,
          "name": "D3",
          "midi": 50,
          "duration": 0.746268,
          "velocity": 0.354331
        },
        {
          "time": 1.910149,
          "name": "D3",
          "midi": 50,
          "duration": 0.447761,
          "velocity": 0.354331
        },
        {
          "time": 2.35791,
          "name": "G3",
          "midi": 55,
          "duration": 0.447761,
          "velocity": 0.354331
        },
        {
          "time": 2.805671,
          "name": "D3",
          "midi": 50,
          "duration": 0.447761,
          "velocity": 0.354331
        },
        {
          "time": 3.253432,
          "name": "G2",
          "midi": 43,
          "duration": 0.447761,
          "velocity": 0.354331
        },
        {
          "time": 3.701193,
          "name": "D3",
          "midi": 50,
          "duration": 0.447761,
          "velocity": 0.354331
        },
        {
          "time": 4.148954,
          "name": "G2",
          "midi": 43,
          "duration": 0.447761,
          "velocity": 0.354331
        },
        {
          "time": 4.596715,
          "name": "D3",
          "midi": 50,
          "duration": 0.447761,
          "velocity": 0.354331
        },
        {
          "time": 5.044476,
          "name": "G3",
          "midi": 55,
          "duration": 0.447761,
          "velocity": 0.354331
        },
        {
          "time": 5.492237,
          "name": "D3",
          "midi": 50,
          "duration": 0.447761,
          "velocity": 0.354331
        },
        {
          "time": 5.939998,
          "name": "G2",
          "midi": 43,
          "duration": 0.447761,
          "velocity": 0.354331
        },
        {
          "time": 6.387759,
          "name": "D3",
          "midi": 50,
          "duration": 0.440298,
          "velocity": 0.354331
        },
        {
          "time": 6.83552,
          "name": "G2",
          "midi": 43,
          "duration": 0.447761,
          "velocity": 0.354331
        },
        {
          "time": 6.880296,
          "name": "G2",
          "midi": 43,
          "duration": 0.746268,
          "velocity": 0.417323
        },
        {
          "time": 6.880296,
          "name": "D3",
          "midi": 50,
          "duration": 0.746268,
          "velocity": 0.417323
        },
        {
          "time": 7.283281,
          "name": "D3",
          "midi": 50,
          "duration": 0.447761,
          "velocity": 0.354331
        },
        {
          "time": 7.731042,
          "name": "G3",
          "midi": 55,
          "duration": 0.447761,
          "velocity": 0.354331
        },
        {
          "time": 8.178803,
          "name": "D3",
          "midi": 50,
          "duration": 0.449566,
          "velocity": 0.354331
        },
        {
          "time": 8.62837,
          "name": "G2",
          "midi": 43,
          "duration": 0.483871,
          "velocity": 0.354331
        },
        {
          "time": 9.112241,
          "name": "D3",
          "midi": 50,
          "duration": 0.482065,
          "velocity": 0.362205
        },
        {
          "time": 9.594306,
          "name": "G2",
          "midi": 43,
          "duration": 0.447761,
          "velocity": 0.370079
        },
        {
          "time": 10.042067,
          "name": "D3",
          "midi": 50,
          "duration": 0.447761,
          "velocity": 0.377953
        },
        {
          "time": 10.489828,
          "name": "G3",
          "midi": 55,
          "duration": 0.447761,
          "velocity": 0.385827
        },
        {
          "time": 10.937589,
          "name": "D3",
          "midi": 50,
          "duration": 0.449566,
          "velocity": 0.393701
        },
        {
          "time": 11.387156,
          "name": "G2",
          "midi": 43,
          "duration": 0.483871,
          "velocity": 0.401575
        },
        {
          "time": 11.871027,
          "name": "D3",
          "midi": 50,
          "duration": 0.475806,
          "velocity": 0.409449
        },
        {
          "time": 12.354898,
          "name": "G2",
          "midi": 43,
          "duration": 0.475806,
          "velocity": 0.417323
        },
        {
          "time": 12.403285,
          "name": "G2",
          "midi": 43,
          "duration": 0.806452,
          "velocity": 0.472441
        },
        {
          "time": 12.403285,
          "name": "E3",
          "midi": 52,
          "duration": 0.806452,
          "velocity": 0.472441
        },
        {
          "time": 12.838769,
          "name": "E3",
          "midi": 52,
          "duration": 0.475806,
          "velocity": 0.417323
        },
        {
          "time": 13.32264,
          "name": "A3",
          "midi": 57,
          "duration": 0.475806,
          "velocity": 0.417323
        },
        {
          "time": 13.806511,
          "name": "E3",
          "midi": 52,
          "duration": 0.475806,
          "velocity": 0.417323
        },
        {
          "time": 14.290382,
          "name": "G2",
          "midi": 43,
          "duration": 0.475806,
          "velocity": 0.417323
        },
        {
          "time": 14.774253,
          "name": "E3",
          "midi": 52,
          "duration": 0.475806,
          "velocity": 0.417323
        },
        {
          "time": 15.258124,
          "name": "G2",
          "midi": 43,
          "duration": 0.475806,
          "velocity": 0.417323
        },
        {
          "time": 15.741995,
          "name": "E3",
          "midi": 52,
          "duration": 0.475806,
          "velocity": 0.409449
        },
        {
          "time": 16.225866,
          "name": "A3",
          "midi": 57,
          "duration": 0.475806,
          "velocity": 0.401575
        },
        {
          "time": 16.709737,
          "name": "E3",
          "midi": 52,
          "duration": 0.475806,
          "velocity": 0.393701
        },
        {
          "time": 17.193608,
          "name": "G2",
          "midi": 43,
          "duration": 0.475806,
          "velocity": 0.385827
        },
        {
          "time": 17.677479,
          "name": "E3",
          "midi": 52,
          "duration": 0.475806,
          "velocity": 0.370079
        },
        {
          "time": 18.16135,
          "name": "G2",
          "midi": 43,
          "duration": 0.475806,
          "velocity": 0.354331
        },
        {
          "time": 18.209737,
          "name": "G2",
          "midi": 43,
          "duration": 0.959677,
          "velocity": 0.472441
        },
        {
          "time": 18.290382,
          "name": "E3",
          "midi": 52,
          "duration": 0.879032,
          "velocity": 0.472441
        },
        {
          "time": 18.371027,
          "name": "A3",
          "midi": 57,
          "duration": 0.798387,
          "velocity": 0.472441
        },
        {
          "time": 18.645221,
          "name": "E3",
          "midi": 52,
          "duration": 0.475806,
          "velocity": 0.354331
        },
        {
          "time": 19.129092,
          "name": "A3",
          "midi": 57,
          "duration": 0.475806,
          "velocity": 0.354331
        },
        {
          "time": 19.612963,
          "name": "E3",
          "midi": 52,
          "duration": 0.474829,
          "velocity": 0.354331
        },
        {
          "time": 20.095367,
          "name": "G2",
          "midi": 43,
          "duration": 0.44697,
          "velocity": 0.354331
        },
        {
          "time": 20.549913,
          "name": "E3",
          "midi": 52,
          "duration": 0.447203,
          "velocity": 0.354331
        },
        {
          "time": 21.004808,
          "name": "G2",
          "midi": 43,
          "duration": 0.453846,
          "velocity": 0.354331
        },
        {
          "time": 21.050962,
          "name": "G2",
          "midi": 43,
          "duration": 0.916346,
          "velocity": 0.472441
        },
        {
          "time": 21.127885,
          "name": "D3",
          "midi": 50,
          "duration": 0.839423,
          "velocity": 0.472441
        },
        {
          "time": 21.204808,
          "name": "A3",
          "midi": 57,
          "duration": 0.7625,
          "velocity": 0.472441
        },
        {
          "time": 21.466346,
          "name": "D3",
          "midi": 50,
          "duration": 0.454087,
          "velocity": 0.354331
        },
        {
          "time": 21.928245,
          "name": "A3",
          "midi": 57,
          "duration": 0.460938,
          "velocity": 0.354331
        },
        {
          "time": 22.396995,
          "name": "D3",
          "midi": 50,
          "duration": 0.461186,
          "velocity": 0.354331
        },
        {
          "time": 22.866118,
          "name": "G2",
          "midi": 43,
          "duration": 0.468254,
          "velocity": 0.354331
        },
        {
          "time": 23.342308,
          "name": "D3",
          "midi": 50,
          "duration": 0.46851,
          "velocity": 0.354331
        },
        {
          "time": 23.818883,
          "name": "G2",
          "midi": 43,
          "duration": 0.475806,
          "velocity": 0.354331
        },
        {
          "time": 23.86727,
          "name": "G2",
          "midi": 43,
          "duration": 0.959677,
          "velocity": 0.472441
        },
        {
          "time": 23.947915,
          "name": "D3",
          "midi": 50,
          "duration": 0.879032,
          "velocity": 0.472441
        },
        {
          "time": 24.02856,
          "name": "G3",
          "midi": 55,
          "duration": 0.798387,
          "velocity": 0.472441
        },
        {
          "time": 24.302754,
          "name": "D3",
          "midi": 50,
          "duration": 0.475806,
          "velocity": 0.354331
        },
        {
          "time": 24.786625,
          "name": "G3",
          "midi": 55,
          "duration": 0.475806,
          "velocity": 0.354331
        },
        {
          "time": 25.270496,
          "name": "D3",
          "midi": 50,
          "duration": 0.475806,
          "velocity": 0.354331
        },
        {
          "time": 25.754367,
          "name": "G2",
          "midi": 43,
          "duration": 0.475806,
          "velocity": 0.354331
        },
        {
          "time": 26.238238,
          "name": "D3",
          "midi": 50,
          "duration": 0.475806,
          "velocity": 0.354331
        },
        {
          "time": 26.722109,
          "name": "G2",
          "midi": 43,
          "duration": 0.475806,
          "velocity": 0.354331
        },
        {
          "time": 27.20598,
          "name": "D3",
          "midi": 50,
          "duration": 0.475806,
          "velocity": 0.354331
        },
        {
          "time": 27.689851,
          "name": "G3",
          "midi": 55,
          "duration": 0.475806,
          "velocity": 0.354331
        },
        {
          "time": 28.173722,
          "name": "D3",
          "midi": 50,
          "duration": 0.475806,
          "velocity": 0.354331
        },
        {
          "time": 28.657593,
          "name": "G2",
          "midi": 43,
          "duration": 0.475806,
          "velocity": 0.354331
        },
        {
          "time": 29.141464,
          "name": "D3",
          "midi": 50,
          "duration": 0.474603,
          "velocity": 0.354331
        },
        {
          "time": 29.623529,
          "name": "G2",
          "midi": 43,
          "duration": 0.440298,
          "velocity": 0.354331
        },
        {
          "time": 29.668305,
          "name": "G2",
          "midi": 43,
          "duration": 0.746268,
          "velocity": 0.472441
        },
        {
          "time": 29.668305,
          "name": "D3",
          "midi": 50,
          "duration": 0.746268,
          "velocity": 0.472441
        },
        {
          "time": 30.07129,
          "name": "D3",
          "midi": 50,
          "duration": 0.440298,
          "velocity": 0.354331
        },
        {
          "time": 30.519051,
          "name": "G3",
          "midi": 55,
          "duration": 0.440298,
          "velocity": 0.354331
        },
        {
          "time": 30.966812,
          "name": "D3",
          "midi": 50,
          "duration": 0.441502,
          "velocity": 0.354331
        },
        {
          "time": 31.416379,
          "name": "G2",
          "midi": 43,
          "duration": 0.475806,
          "velocity": 0.354331
        },
        {
          "time": 31.90025,
          "name": "D3",
          "midi": 50,
          "duration": 0.474603,
          "velocity": 0.354331
        },
        {
          "time": 32.382315,
          "name": "G2",
          "midi": 43,
          "duration": 0.440298,
          "velocity": 0.354331
        },
        {
          "time": 32.830076,
          "name": "D3",
          "midi": 50,
          "duration": 0.440298,
          "velocity": 0.354331
        },
        {
          "time": 33.277837,
          "name": "G3",
          "midi": 55,
          "duration": 0.440298,
          "velocity": 0.354331
        },
        {
          "time": 33.725598,
          "name": "D3",
          "midi": 50,
          "duration": 0.441502,
          "velocity": 0.354331
        },
        {
          "time": 34.175165,
          "name": "G2",
          "midi": 43,
          "duration": 0.475806,
          "velocity": 0.354331
        },
        {
          "time": 34.659036,
          "name": "D3",
          "midi": 50,
          "duration": 0.475806,
          "velocity": 0.354331
        },
        {
          "time": 35.142907,
          "name": "G2",
          "midi": 43,
          "duration": 0.475806,
          "velocity": 0.354331
        },
        {
          "time": 35.191294,
          "name": "G2",
          "midi": 43,
          "duration": 2.903226,
          "velocity": 0.535433
        },
        {
          "time": 35.626778,
          "name": "E3",
          "midi": 52,
          "duration": 0.475806,
          "velocity": 0.354331
        },
        {
          "time": 36.110649,
          "name": "A#3",
          "midi": 58,
          "duration": 0.475806,
          "velocity": 0.354331
        },
        {
          "time": 36.59452,
          "name": "E3",
          "midi": 52,
          "duration": 0.475806,
          "velocity": 0.354331
        },
        {
          "time": 37.078391,
          "name": "G2",
          "midi": 43,
          "duration": 0.475806,
          "velocity": 0.354331
        },
        {
          "time": 37.562262,
          "name": "E3",
          "midi": 52,
          "duration": 0.475806,
          "velocity": 0.354331
        },
        {
          "time": 38.046133,
          "name": "F#2",
          "midi": 42,
          "duration": 0.475806,
          "velocity": 0.354331
        },
        {
          "time": 38.09452,
          "name": "F#2",
          "midi": 42,
          "duration": 2.661291,
          "velocity": 0.535433
        },
        {
          "time": 38.530004,
          "name": "E3",
          "midi": 52,
          "duration": 0.475806,
          "velocity": 0.354331
        },
        {
          "time": 39.013875,
          "name": "A#3",
          "midi": 58,
          "duration": 0.475806,
          "velocity": 0.354331
        },
        {
          "time": 39.497746,
          "name": "E3",
          "midi": 52,
          "duration": 0.475806,
          "velocity": 0.354331
        },
        {
          "time": 39.981617,
          "name": "F#2",
          "midi": 42,
          "duration": 0.475806,
          "velocity": 0.354331
        },
        {
          "time": 40.465488,
          "name": "E3",
          "midi": 52,
          "duration": 0.475806,
          "velocity": 0.354331
        },
        {
          "time": 40.949359,
          "name": "F#2",
          "midi": 42,
          "duration": 0.475806,
          "velocity": 0.354331
        },
        {
          "time": 40.997746,
          "name": "F#2",
          "midi": 42,
          "duration": 0.959677,
          "velocity": 0.535433
        },
        {
          "time": 41.078391,
          "name": "D3",
          "midi": 50,
          "duration": 0.879032,
          "velocity": 0.535433
        },
        {
          "time": 41.159036,
          "name": "F#3",
          "midi": 54,
          "duration": 0.798387,
          "velocity": 0.535433
        },
        {
          "time": 41.239681,
          "name": "B3",
          "midi": 59,
          "duration": 0.717742,
          "velocity": 0.535433
        },
        {
          "time": 41.43323,
          "name": "D3",
          "midi": 50,
          "duration": 0.475806,
          "velocity": 0.354331
        },
        {
          "time": 41.917101,
          "name": "F#3",
          "midi": 54,
          "duration": 0.475806,
          "velocity": 0.354331
        },
        {
          "time": 42.400972,
          "name": "D3",
          "midi": 50,
          "duration": 0.475806,
          "velocity": 0.354331
        },
        {
          "time": 42.884843,
          "name": "F#2",
          "midi": 42,
          "duration": 0.47555,
          "velocity": 0.354331
        },
        {
          "time": 43.36833,
          "name": "D3",
          "midi": 50,
          "duration": 0.468006,
          "velocity": 0.354331
        },
        {
          "time": 43.844148,
          "name": "F#2",
          "midi": 42,
          "duration": 0.460697,
          "velocity": 0.354331
        },
        {
          "time": 43.891023,
          "name": "F#2",
          "midi": 42,
          "duration": 0.920582,
          "velocity": 0.535433
        },
        {
          "time": 43.969148,
          "name": "C#3",
          "midi": 49,
          "duration": 0.842457,
          "velocity": 0.535433
        },
        {
          "time": 44.047273,
          "name": "F#3",
          "midi": 54,
          "duration": 0.764332,
          "velocity": 0.535433
        },
        {
          "time": 44.312537,
          "name": "C#3",
          "midi": 49,
          "duration": 0.453613,
          "velocity": 0.362205
        },
        {
          "time": 44.773726,
          "name": "F#3",
          "midi": 54,
          "duration": 0.447203,
          "velocity": 0.370079
        },
        {
          "time": 45.228621,
          "name": "C#3",
          "midi": 49,
          "duration": 0.454087,
          "velocity": 0.377953
        },
        {
          "time": 45.690521,
          "name": "F#2",
          "midi": 42,
          "duration": 0.461186,
          "velocity": 0.385827
        },
        {
          "time": 46.159643,
          "name": "C#3",
          "midi": 49,
          "duration": 0.46851,
          "velocity": 0.401575
        },
        {
          "time": 46.636217,
          "name": "B2",
          "midi": 47,
          "duration": 0.475806,
          "velocity": 0.417323
        },
        {
          "time": 46.684604,
          "name": "B1",
          "midi": 35,
          "duration": 0.959677,
          "velocity": 0.535433
        },
        {
          "time": 46.765249,
          "name": "B2",
          "midi": 47,
          "duration": 0.879032,
          "velocity": 0.535433
        },
        {
          "time": 46.845894,
          "name": "B3",
          "midi": 59,
          "duration": 0.798387,
          "velocity": 0.535433
        },
        {
          "time": 47.120088,
          "name": "F#3",
          "midi": 54,
          "duration": 0.475806,
          "velocity": 0.409449
        },
        {
          "time": 47.603959,
          "name": "B3",
          "midi": 59,
          "duration": 0.475806,
          "velocity": 0.401575
        },
        {
          "time": 48.08783,
          "name": "F#3",
          "midi": 54,
          "duration": 0.475806,
          "velocity": 0.393701
        },
        {
          "time": 48.571701,
          "name": "B2",
          "midi": 47,
          "duration": 0.475806,
          "velocity": 0.385827
        },
        {
          "time": 49.055572,
          "name": "F#3",
          "midi": 54,
          "duration": 0.475806,
          "velocity": 0.370079
        },
        {
          "time": 49.539443,
          "name": "B2",
          "midi": 47,
          "duration": 0.475806,
          "velocity": 0.354331
        },
        {
          "time": 50.023314,
          "name": "F#3",
          "midi": 54,
          "duration": 0.475806,
          "velocity": 0.354331
        },
        {
          "time": 50.507185,
          "name": "B3",
          "midi": 59,
          "duration": 0.475806,
          "velocity": 0.354331
        },
        {
          "time": 50.991056,
          "name": "F#3",
          "midi": 54,
          "duration": 0.475806,
          "velocity": 0.354331
        },
        {
          "time": 51.474927,
          "name": "B2",
          "midi": 47,
          "duration": 0.475806,
          "velocity": 0.354331
        },
        {
          "time": 51.958798,
          "name": "F#3",
          "midi": 54,
          "duration": 0.474829,
          "velocity": 0.354331
        },
        {
          "time": 52.441203,
          "name": "B2",
          "midi": 47,
          "duration": 0.44697,
          "velocity": 0.354331
        },
        {
          "time": 52.895748,
          "name": "D3",
          "midi": 50,
          "duration": 0.44697,
          "velocity": 0.354331
        },
        {
          "time": 53.350294,
          "name": "B3",
          "midi": 59,
          "duration": 0.44697,
          "velocity": 0.354331
        },
        {
          "time": 53.804839,
          "name": "D3",
          "midi": 50,
          "duration": 0.447947,
          "velocity": 0.354331
        },
        {
          "time": 54.260851,
          "name": "B2",
          "midi": 47,
          "duration": 0.475806,
          "velocity": 0.354331
        },
        {
          "time": 54.744722,
          "name": "D3",
          "midi": 50,
          "duration": 0.474829,
          "velocity": 0.354331
        },
        {
          "time": 55.227127,
          "name": "A#2",
          "midi": 46,
          "duration": 0.44697,
          "velocity": 0.354331
        },
        {
          "time": 55.681672,
          "name": "D3",
          "midi": 50,
          "duration": 0.44697,
          "velocity": 0.354331
        },
        {
          "time": 56.136218,
          "name": "A#3",
          "midi": 58,
          "duration": 0.44697,
          "velocity": 0.354331
        },
        {
          "time": 56.590763,
          "name": "D3",
          "midi": 50,
          "duration": 0.447947,
          "velocity": 0.354331
        },
        {
          "time": 57.046775,
          "name": "A#2",
          "midi": 46,
          "duration": 0.475806,
          "velocity": 0.354331
        },
        {
          "time": 57.530646,
          "name": "D3",
          "midi": 50,
          "duration": 0.475806,
          "velocity": 0.354331
        },
        {
          "time": 58.014517,
          "name": "A2",
          "midi": 45,
          "duration": 0.475806,
          "velocity": 0.354331
        },
        {
          "time": 58.498388,
          "name": "D3",
          "midi": 50,
          "duration": 0.475806,
          "velocity": 0.354331
        },
        {
          "time": 58.982259,
          "name": "A3",
          "midi": 57,
          "duration": 0.475806,
          "velocity": 0.354331
        },
        {
          "time": 59.46613,
          "name": "D3",
          "midi": 50,
          "duration": 0.475806,
          "velocity": 0.354331
        },
        {
          "time": 59.950001,
          "name": "A2",
          "midi": 45,
          "duration": 0.475806,
          "velocity": 0.354331
        },
        {
          "time": 60.433872,
          "name": "D3",
          "midi": 50,
          "duration": 0.475806,
          "velocity": 0.354331
        },
        {
          "time": 60.917743,
          "name": "D2",
          "midi": 38,
          "duration": 0.475806,
          "velocity": 0.354331
        },
        {
          "time": 61.401614,
          "name": "D3",
          "midi": 50,
          "duration": 0.475806,
          "velocity": 0.354331
        },
        {
          "time": 61.885485,
          "name": "A3",
          "midi": 57,
          "duration": 0.475806,
          "velocity": 0.354331
        },
        {
          "time": 62.369356,
          "name": "D3",
          "midi": 50,
          "duration": 0.475806,
          "velocity": 0.354331
        },
        {
          "time": 62.853227,
          "name": "D2",
          "midi": 38,
          "duration": 0.475806,
          "velocity": 0.354331
        },
        {
          "time": 63.337098,
          "name": "D3",
          "midi": 50,
          "duration": 0.474829,
          "velocity": 0.354331
        },
        {
          "time": 63.819503,
          "name": "A2",
          "midi": 45,
          "duration": 0.44697,
          "velocity": 0.354331
        },
        {
          "time": 64.274048,
          "name": "C3",
          "midi": 48,
          "duration": 0.44697,
          "velocity": 0.354331
        },
        {
          "time": 64.728594,
          "name": "A3",
          "midi": 57,
          "duration": 0.44697,
          "velocity": 0.354331
        },
        {
          "time": 65.183139,
          "name": "C3",
          "midi": 48,
          "duration": 0.447947,
          "velocity": 0.354331
        },
        {
          "time": 65.639151,
          "name": "A2",
          "midi": 45,
          "duration": 0.475806,
          "velocity": 0.354331
        },
        {
          "time": 66.123022,
          "name": "C3",
          "midi": 48,
          "duration": 0.474829,
          "velocity": 0.354331
        },
        {
          "time": 66.605427,
          "name": "G#2",
          "midi": 44,
          "duration": 0.44697,
          "velocity": 0.354331
        },
        {
          "time": 67.059972,
          "name": "C3",
          "midi": 48,
          "duration": 0.44697,
          "velocity": 0.354331
        },
        {
          "time": 67.514518,
          "name": "G#3",
          "midi": 56,
          "duration": 0.44697,
          "velocity": 0.354331
        },
        {
          "time": 67.969063,
          "name": "C3",
          "midi": 48,
          "duration": 0.447947,
          "velocity": 0.354331
        },
        {
          "time": 68.425075,
          "name": "G#2",
          "midi": 44,
          "duration": 0.475806,
          "velocity": 0.354331
        },
        {
          "time": 68.908946,
          "name": "C3",
          "midi": 48,
          "duration": 0.475806,
          "velocity": 0.354331
        },
        {
          "time": 69.392817,
          "name": "G2",
          "midi": 43,
          "duration": 0.475806,
          "velocity": 0.354331
        },
        {
          "time": 69.876688,
          "name": "C3",
          "midi": 48,
          "duration": 0.475806,
          "velocity": 0.354331
        },
        {
          "time": 70.360559,
          "name": "G3",
          "midi": 55,
          "duration": 0.475806,
          "velocity": 0.354331
        },
        {
          "time": 70.84443,
          "name": "C3",
          "midi": 48,
          "duration": 0.475806,
          "velocity": 0.354331
        },
        {
          "time": 71.328301,
          "name": "G2",
          "midi": 43,
          "duration": 0.475806,
          "velocity": 0.354331
        },
        {
          "time": 71.812172,
          "name": "C3",
          "midi": 48,
          "duration": 0.475806,
          "velocity": 0.354331
        },
        {
          "time": 72.296043,
          "name": "C2",
          "midi": 36,
          "duration": 0.475806,
          "velocity": 0.354331
        },
        {
          "time": 72.779914,
          "name": "C3",
          "midi": 48,
          "duration": 0.475806,
          "velocity": 0.354331
        },
        {
          "time": 73.263785,
          "name": "G3",
          "midi": 55,
          "duration": 0.475806,
          "velocity": 0.354331
        },
        {
          "time": 73.747656,
          "name": "C3",
          "midi": 48,
          "duration": 0.475806,
          "velocity": 0.354331
        },
        {
          "time": 74.231527,
          "name": "C2",
          "midi": 36,
          "duration": 0.475806,
          "velocity": 0.354331
        },
        {
          "time": 74.715398,
          "name": "C3",
          "midi": 48,
          "duration": 0.475062,
          "velocity": 0.354331
        },
        {
          "time": 75.198152,
          "name": "F2",
          "midi": 41,
          "duration": 0.453846,
          "velocity": 0.354331
        },
        {
          "time": 75.659691,
          "name": "A2",
          "midi": 45,
          "duration": 0.453846,
          "velocity": 0.354331
        },
        {
          "time": 76.121229,
          "name": "F3",
          "midi": 53,
          "duration": 0.453846,
          "velocity": 0.354331
        },
        {
          "time": 76.582768,
          "name": "A2",
          "midi": 45,
          "duration": 0.453846,
          "velocity": 0.354331
        },
        {
          "time": 77.044306,
          "name": "F2",
          "midi": 41,
          "duration": 0.453846,
          "velocity": 0.354331
        },
        {
          "time": 77.505845,
          "name": "A2",
          "midi": 45,
          "duration": 0.453846,
          "velocity": 0.354331
        },
        {
          "time": 77.967383,
          "name": "E2",
          "midi": 40,
          "duration": 0.453846,
          "velocity": 0.354331
        },
        {
          "time": 78.428922,
          "name": "A2",
          "midi": 45,
          "duration": 0.453846,
          "velocity": 0.354331
        },
        {
          "time": 78.89046,
          "name": "E3",
          "midi": 52,
          "duration": 0.453846,
          "velocity": 0.354331
        },
        {
          "time": 79.351999,
          "name": "A2",
          "midi": 45,
          "duration": 0.453846,
          "velocity": 0.354331
        },
        {
          "time": 79.813537,
          "name": "E2",
          "midi": 40,
          "duration": 0.453846,
          "velocity": 0.354331
        },
        {
          "time": 80.275076,
          "name": "A2",
          "midi": 45,
          "duration": 0.455128,
          "velocity": 0.354331
        },
        {
          "time": 80.738537,
          "name": "D2",
          "midi": 38,
          "duration": 0.491667,
          "velocity": 0.354331
        },
        {
          "time": 80.788537,
          "name": "A3",
          "midi": 57,
          "duration": 1.211463,
          "velocity": 0.535433
        },
        {
          "time": 80.788537,
          "name": "D4",
          "midi": 62,
          "duration": 1.211463,
          "velocity": 0.535433
        },
        {
          "time": 80.788537,
          "name": "F#4",
          "midi": 66,
          "duration": 1.211463,
          "velocity": 0.535433
        },
        {
          "time": 81.238537,
          "name": "A2",
          "midi": 45,
          "duration": 0.491667,
          "velocity": 0.354331
        },
        {
          "time": 81.738537,
          "name": "D3",
          "midi": 50,
          "duration": 0.261463,
          "velocity": 0.354331
        }
      ]
    },
    {
      "id": 4,
      "instrument": "contrabass",
      "startTime": 0,
      "duration": 82.110204,
      "length": 0,
      "notes": []
    }
  ]
}
